<svg width="103" height="123" viewBox="0 0 103 123" fill="none" xmlns="http://www.w3.org/2000/svg">
<path d="M42 0V123L19.8033 87.9198C7.86968 69.0595 8.7684 44.801 22.0649 26.8755L42 0Z" fill="#FF786B"/>
<path d="M61 0V123L83.1967 87.9198C95.1303 69.0595 94.2316 44.801 80.9351 26.8755L61 0Z" fill="#FF786B"/>
<path d="M73.6617 41.4111C73.9904 41.3641 74.3165 41.3406 74.64 41.3406C74.8383 41.3406 75.1148 41.3563 75.4696 41.3876C75.8296 41.4189 76.2522 41.4998 76.7374 41.6302C77.2226 41.7659 77.6817 41.9302 78.1148 42.1232C78.553 42.3215 78.9496 42.5276 79.3043 42.7415L78.3887 43.9859C78.2948 43.918 78.1591 43.8398 77.9817 43.7511C77.8096 43.6624 77.6061 43.5711 77.3713 43.4772C77.1365 43.3885 76.8783 43.3024 76.5965 43.2189C76.32 43.1354 76.0304 43.065 75.7278 43.0076C75.4252 42.9554 75.1174 42.9215 74.8043 42.9059C74.7157 42.9006 74.6296 42.898 74.5461 42.898C74.3165 42.898 74.0948 42.9137 73.8809 42.945C73.7452 42.9659 73.5835 43.005 73.3957 43.0624C73.2078 43.125 73.0148 43.2163 72.8165 43.3363C72.613 43.4563 72.4148 43.6076 72.2217 43.7902C72.0287 43.9728 71.8565 44.1919 71.7052 44.4476C71.5487 44.7085 71.4235 45.0111 71.3296 45.3554C71.2304 45.705 71.1809 46.1015 71.1809 46.545C71.1809 47.098 71.233 47.5989 71.3374 48.0476C71.4417 48.4963 71.5957 48.8902 71.7991 49.2293C71.9974 49.5685 72.2426 49.8528 72.5348 50.0824C72.8217 50.3119 73.1478 50.4841 73.513 50.5989C73.9617 50.7398 74.413 50.8154 74.867 50.8259L74.9609 50.8259C75.3835 50.8259 75.7957 50.7919 76.1974 50.7241C76.5991 50.6563 76.98 50.5598 77.34 50.4345C77.7052 50.3145 78.0209 50.1945 78.287 50.0745C78.5583 49.9545 78.7696 49.8476 78.9209 49.7537C79.0774 49.665 79.1557 49.618 79.1557 49.6128L79.9852 50.9119C79.9591 50.9276 79.8522 50.9902 79.6643 51.0998C79.4817 51.2093 79.2339 51.3372 78.9209 51.4832C78.3783 51.7702 77.9478 52.0415 77.6296 52.2972C77.3113 52.5528 77.0713 52.7954 76.9096 53.025C76.7478 53.2545 76.6435 53.4711 76.5965 53.6745C76.5548 53.8832 76.5339 54.0789 76.5339 54.2615L76.5339 54.4337L75 54.4337L75 54.2615C75 53.5572 75.1591 52.9285 75.4774 52.3754C75.3574 52.3806 75.2374 52.3832 75.1174 52.3832C74.8409 52.3832 74.5304 52.3624 74.1861 52.3206C73.8417 52.2841 73.4609 52.198 73.0435 52.0624C72.4539 51.8641 71.9452 51.585 71.5174 51.225C71.0896 50.8702 70.7374 50.4554 70.4609 49.9806C70.1791 49.5059 69.9704 48.9789 69.8348 48.3998C69.6991 47.8259 69.6313 47.218 69.6313 46.5763C69.6313 45.9085 69.7148 45.2824 69.8817 44.698C70.0435 44.1189 70.2913 43.6024 70.6252 43.1485C70.9539 42.6945 71.3713 42.3163 71.8774 42.0137C72.3835 41.7163 72.9783 41.5154 73.6617 41.4111ZM80.0557 48.1728L78.78 46.8972L80.0635 45.6137L81.3391 46.8893L80.0557 48.1728ZM76.5339 61.088L75 61.088L75 60.9315C75 60.4045 75.0887 59.9663 75.2661 59.6167C75.4487 59.2672 75.6835 58.9802 75.9704 58.7558C75.8087 58.5889 75.6652 58.4063 75.54 58.208C75.42 58.0098 75.3183 57.775 75.2348 57.5037C75.1565 57.2324 75.0965 56.9141 75.0548 56.5489C75.0183 56.1889 75 55.7637 75 55.2732L75 54.1072L76.5339 54.1072L76.5339 55.2732C76.5339 55.7689 76.573 56.1915 76.6513 56.5411C76.7296 56.8958 76.847 57.1828 77.0035 57.4019C77.16 57.6263 77.3557 57.7906 77.5904 57.895C77.8252 57.9993 78.0991 58.0515 78.4122 58.0515C78.7096 58.0515 79.0122 58.028 79.32 57.9811C79.6278 57.9393 79.98 57.8611 80.3765 57.7463L80.7913 59.2176C80.6087 59.2698 80.4313 59.3141 80.2591 59.3506C80.0922 59.3872 79.9148 59.4185 79.727 59.4445C79.5391 59.4706 79.3357 59.4941 79.1165 59.515C78.8974 59.5411 78.6496 59.5645 78.373 59.5854C78.18 59.6011 77.9765 59.6298 77.7626 59.6715C77.5487 59.7132 77.3504 59.7811 77.1678 59.875C76.9852 59.9741 76.8339 60.1072 76.7139 60.2741C76.5939 60.4463 76.5339 60.6654 76.5339 60.9315L76.5339 61.088ZM83.6791 57.4254L82.4113 56.1576L83.687 54.8741L84.9626 56.1419L83.6791 57.4254ZM83.6713 60.6341L82.3957 59.3663L83.6791 58.0828L84.947 59.3506L83.6713 60.6341ZM76.5339 60.7693L76.5339 60.9336C76.5339 61.1527 76.5835 61.364 76.6826 61.5675C76.7817 61.7762 76.9122 61.9693 77.0739 62.1467C77.2409 62.3293 77.4261 62.4962 77.6296 62.6475C77.8383 62.7988 78.0496 62.9319 78.2635 63.0467C78.5035 63.1667 78.7383 63.2684 78.9678 63.3519C79.2026 63.4353 79.4217 63.5058 79.6252 63.5632C79.8339 63.6258 80.0244 63.6753 80.1965 63.7119C80.3687 63.7484 80.5174 63.7823 80.6426 63.8136L80.2278 65.3162C80.0974 65.2849 79.9148 65.2432 79.68 65.191C79.4452 65.144 79.1896 65.0971 78.913 65.0501C78.6417 65.0084 78.3652 64.9797 78.0835 64.964C77.9791 64.9588 77.88 64.9562 77.7861 64.9562C77.6191 64.9562 77.4391 64.9693 77.2461 64.9953C77.0583 65.0267 76.8913 65.0971 76.7452 65.2067C76.5991 65.3214 76.5261 65.4858 76.5261 65.6997C76.5261 65.9658 76.5965 66.2032 76.7374 66.4119C76.8783 66.6258 77.0635 66.8136 77.293 66.9753C77.5226 67.1371 77.7861 67.2753 78.0835 67.3901C78.3809 67.5049 78.6835 67.604 78.9913 67.6875C79.2991 67.771 79.6017 67.8362 79.8991 67.8832C80.2017 67.9353 80.473 67.9745 80.713 68.0006L80.4235 69.5267C80.2409 69.5006 80.0191 69.4667 79.7583 69.4249C79.4974 69.3832 79.2235 69.3519 78.9365 69.331C78.733 69.3101 78.5296 69.2997 78.3261 69.2997C78.2426 69.2997 78.1096 69.3023 77.927 69.3075C77.7444 69.318 77.5409 69.3571 77.3165 69.4249C77.0922 69.498 76.9096 69.6101 76.7687 69.7614C76.6278 69.9127 76.5574 70.1188 76.5574 70.3797C76.5574 70.6301 76.6304 70.8362 76.7765 70.998C76.9278 71.1597 77.1235 71.2875 77.3635 71.3814C77.6087 71.4806 77.88 71.551 78.1774 71.5927C78.48 71.6345 78.7826 71.6606 79.0852 71.671C79.2365 71.6762 79.3852 71.6788 79.5313 71.6788C79.6774 71.6788 79.8522 71.6736 80.0557 71.6632C80.2591 71.658 80.4548 71.6501 80.6426 71.6397L80.7678 73.1736C80.5957 73.1893 80.4209 73.2049 80.2435 73.2206C80.0713 73.2414 79.8913 73.2649 79.7035 73.291C79.5157 73.3223 79.3174 73.3588 79.1087 73.4006C78.9 73.4475 78.6783 73.5101 78.4435 73.5884C77.8017 73.7971 77.3217 74.0527 77.0035 74.3553C76.6904 74.6632 76.5339 75.0049 76.5339 75.3806L76.5339 75.5684L75 75.5684L75 75.3806C75 75.1093 75.0365 74.8432 75.1096 74.5823C75.1878 74.3214 75.2974 74.0736 75.4383 73.8388C75.5791 73.6093 75.7487 73.398 75.947 73.2049C76.1452 73.0119 76.3696 72.8475 76.62 72.7119C76.3748 72.6075 76.153 72.4771 75.9548 72.3206C75.7565 72.164 75.587 71.984 75.4461 71.7806C75.3052 71.5823 75.1957 71.3658 75.1174 71.131C75.0391 70.8962 75 70.6458 75 70.3797C75 69.858 75.133 69.4014 75.3991 69.0101C75.6704 68.6188 76.0383 68.3267 76.5026 68.1336C76.2835 67.9927 76.08 67.8336 75.8922 67.6562C75.7096 67.484 75.5478 67.2936 75.407 67.0849C75.2713 66.8814 75.1644 66.6623 75.0861 66.4275C75.013 66.198 74.9765 65.9553 74.9765 65.6997C74.9765 65.4545 75.013 65.2171 75.0861 64.9875C75.1591 64.7632 75.2635 64.5597 75.3991 64.3771C75.5348 64.1945 75.6991 64.0353 75.8922 63.8997C76.0852 63.764 76.2991 63.6623 76.5339 63.5945C76.3044 63.4327 76.0957 63.2606 75.9078 63.078C75.72 62.8953 75.5583 62.6945 75.4226 62.4753C75.2922 62.2562 75.1878 62.0188 75.1096 61.7632C75.0365 61.5127 75 61.2362 75 60.9336L75 60.7693L76.5339 60.7693ZM76.5339 75.2536L76.5339 76.1615C76.5339 76.4641 76.5391 76.7432 76.5496 76.9989C76.5652 77.2545 76.6044 77.4867 76.667 77.6954C76.7296 77.9041 76.8209 78.0867 76.9409 78.2432C77.0661 78.3997 77.2383 78.5302 77.4574 78.6345C77.567 78.6867 77.7052 78.7258 77.8722 78.7519C77.9817 78.7675 78.0991 78.7754 78.2244 78.7754C78.2922 78.7754 78.3939 78.7702 78.5296 78.7597C78.6704 78.7493 78.8609 78.7154 79.1009 78.658C79.3461 78.6006 79.6017 78.5171 79.8678 78.4075L81.5426 77.7267L82.2313 79.1197C82.2261 79.1197 82.1713 79.1432 82.067 79.1902C81.9678 79.2371 81.8322 79.2971 81.66 79.3702C81.4878 79.4484 81.287 79.5319 81.0574 79.6206C80.833 79.7093 80.593 79.7928 80.3374 79.871C79.5809 80.1058 78.913 80.2415 78.3339 80.278C78.2504 80.2832 78.167 80.2858 78.0835 80.2858C77.6087 80.2858 77.1913 80.2075 76.8313 80.051C76.4765 79.8945 76.1817 79.7015 75.947 79.4719C75.7122 79.2475 75.5244 78.9867 75.3835 78.6893C75.2426 78.3919 75.1435 78.058 75.0861 77.6875C75.0287 77.3223 75 76.9258 75 76.498L75 75.2536L76.5339 75.2536ZM72.1983 79.0571L70.9226 77.7815L72.2061 76.498L73.4817 77.7736L72.1983 79.0571Z" fill="white"/>
<path d="M31.9835 71.1884C31.8217 70.3849 31.5974 69.6649 31.3104 69.0284C31.0235 68.3919 30.7 67.8467 30.34 67.3927C29.98 66.9388 29.5965 66.5814 29.1896 66.3206C28.7878 66.0545 28.3913 65.8927 28 65.8353L28 66.1953C28 66.3206 28 66.498 28 66.7275C28 66.9519 27.987 67.2075 27.9609 67.4945C27.893 68.6267 27.5226 69.464 26.8496 70.0067C26.547 70.2467 26.1974 70.398 25.8009 70.4606C25.5922 70.4971 25.3835 70.5153 25.1748 70.5153C24.9765 70.5153 24.7261 70.4945 24.4235 70.4527C24.1157 70.4058 23.7687 70.3014 23.3826 70.1397C22.9913 69.978 22.6548 69.7875 22.373 69.5684C22.0443 69.3023 21.7965 69.0153 21.6296 68.7075C21.4574 68.3945 21.3713 68.071 21.3713 67.7371C21.3713 66.9962 21.7052 66.3153 22.373 65.6945C22.6183 65.4753 22.8948 65.2771 23.2026 65.0997C23.5104 64.9223 23.8417 64.771 24.1965 64.6458C24.5461 64.5206 24.9139 64.4214 25.3 64.3484C25.6809 64.2753 26.0696 64.2336 26.4661 64.2232L26.4661 63.4797L28 63.4797L28 64.3406C28.7722 64.4971 29.4687 64.7814 30.0896 65.1936C30.7157 65.6006 31.2609 66.0962 31.7252 66.6806C32.1896 67.2597 32.5704 67.9067 32.8678 68.6214C33.1652 69.331 33.3739 70.0667 33.4939 70.8284L31.9835 71.1884ZM22.913 67.7371C22.913 67.8884 22.973 68.0319 23.093 68.1675C23.2078 68.3032 23.3565 68.4258 23.5391 68.5353C23.7217 68.6397 23.9278 68.7284 24.1574 68.8014C24.3817 68.8745 24.6035 68.924 24.8226 68.9501C24.9426 68.9658 25.06 68.9736 25.1748 68.9736C25.2687 68.9736 25.3861 68.9658 25.527 68.9501C25.6626 68.9293 25.7852 68.8745 25.8948 68.7858C25.9991 68.7075 26.0852 68.611 26.153 68.4962C26.2157 68.3762 26.2678 68.251 26.3096 68.1206C26.3461 67.9849 26.3748 67.8545 26.3957 67.7293C26.4113 67.5988 26.4217 67.4867 26.427 67.3927C26.4426 67.1319 26.4504 66.8867 26.4504 66.6571C26.4504 66.5997 26.4504 66.4901 26.4504 66.3284C26.4452 66.1614 26.4348 65.9762 26.4191 65.7727C26.0852 65.7884 25.7696 65.8275 25.4722 65.8901C25.1748 65.9527 24.8983 66.0336 24.6426 66.1327C24.387 66.2319 24.1574 66.344 23.9539 66.4693C23.7452 66.5893 23.5652 66.7145 23.4139 66.8449C23.3617 66.8971 23.307 66.9571 23.2496 67.0249C23.187 67.0875 23.1322 67.158 23.0852 67.2362C23.033 67.3093 22.9913 67.3875 22.96 67.471C22.9287 67.5545 22.913 67.6432 22.913 67.7371ZM26.4661 57.9687L28 57.9687L28 58.1252C28 58.6521 27.9113 59.0904 27.7339 59.44C27.5513 59.7895 27.3165 60.0765 27.0296 60.3008C27.3583 60.6295 27.6035 61.0548 27.7652 61.5765C27.9217 62.0982 28 62.7426 28 63.5095L28 63.7991L26.4661 63.7991L26.4661 63.5095C26.4661 62.633 26.3096 61.9965 25.9965 61.6C25.6783 61.2034 25.2087 61.0052 24.5878 61.0052C24.2904 61.0052 23.9878 61.0287 23.68 61.0756C23.3722 61.1174 23.02 61.1956 22.6235 61.3104L22.2087 59.8391C22.3913 59.7869 22.5687 59.7426 22.7409 59.7061C22.9078 59.6695 23.0852 59.6382 23.273 59.6121C23.4609 59.5861 23.6643 59.5626 23.8835 59.5417C24.1026 59.5156 24.3504 59.4921 24.627 59.4713C24.82 59.4556 25.0235 59.4269 25.2374 59.3852C25.4513 59.3434 25.6496 59.2756 25.8322 59.1817C26.0148 59.0826 26.1661 58.9495 26.2861 58.7826C26.4061 58.6104 26.4661 58.3913 26.4661 58.1252L26.4661 57.9687ZM19.5087 60.0348L20.7843 61.3104L19.5009 62.5939L18.2252 61.3182L19.5087 60.0348ZM26.4661 58.123C26.4661 57.6587 26.3957 57.2726 26.2548 56.9648C26.1087 56.657 25.9183 56.3961 25.6835 56.1822C25.4435 55.963 25.1722 55.7752 24.8696 55.6187C24.5617 55.457 24.2461 55.2952 23.9226 55.1335C23.6304 54.9926 23.3435 54.8439 23.0617 54.6874C22.7748 54.5257 22.5217 54.3457 22.3026 54.1474C22.0783 53.9439 21.8983 53.7144 21.7626 53.4587C21.6217 53.1978 21.5513 52.8952 21.5513 52.5509C21.5513 52.1387 21.6348 51.7761 21.8017 51.463C21.9635 51.1448 22.1774 50.8735 22.4435 50.6491C22.7096 50.4248 23.0122 50.2474 23.3513 50.117C23.6904 49.9813 24.0348 49.8874 24.3843 49.8352C24.5617 49.8091 24.7443 49.7961 24.9322 49.7961C25.0991 49.7961 25.3183 49.8117 25.5896 49.843C25.8609 49.8744 26.1609 49.9578 26.4896 50.0935C26.813 50.2291 27.0974 50.4144 27.3426 50.6491C27.5826 50.8839 27.7496 51.1709 27.8435 51.51C27.9009 51.7239 27.9296 51.9378 27.9296 52.1517C27.9296 52.2561 27.9165 52.4178 27.8904 52.637C27.8643 52.8509 27.7939 53.1117 27.6791 53.4196C27.5591 53.7222 27.4157 54.0144 27.2487 54.2961C27.0765 54.5778 26.9017 54.8387 26.7243 55.0787C27.0009 55.2822 27.2226 55.4961 27.3896 55.7204C27.5565 55.9396 27.6843 56.1744 27.773 56.4248C27.8617 56.6752 27.9217 56.9413 27.953 57.223C27.9843 57.5048 28 57.8048 28 58.123L28 58.2796L26.4661 58.2796L26.4661 58.123ZM25.4565 54.1787C25.8061 53.7039 26.0591 53.2709 26.2157 52.8796C26.32 52.6187 26.3722 52.3839 26.3722 52.1752C26.3722 52.0761 26.3617 51.9848 26.3409 51.9013C26.32 51.8126 26.26 51.7265 26.1609 51.643C26.0617 51.5596 25.9339 51.4891 25.7774 51.4317C25.6209 51.3691 25.4409 51.3248 25.2374 51.2987C25.1539 51.2883 25.0704 51.283 24.987 51.283C24.8565 51.283 24.7209 51.2935 24.58 51.3144C24.5435 51.3196 24.4809 51.3326 24.3922 51.3535C24.3035 51.3744 24.2043 51.4057 24.0948 51.4474C23.9852 51.4839 23.873 51.5335 23.7583 51.5961C23.6383 51.6587 23.5313 51.7344 23.4374 51.823C23.3383 51.9117 23.2574 52.0161 23.1948 52.1361C23.1322 52.2561 23.1009 52.3944 23.1009 52.5509C23.1009 52.6552 23.1322 52.7544 23.1948 52.8483C23.2522 52.937 23.3435 53.0283 23.4687 53.1222C23.5939 53.2109 23.7504 53.3074 23.9383 53.4117C24.1261 53.5109 24.3478 53.6257 24.6035 53.7561L25.4565 54.1787Z" fill="white"/>
</svg>
