<svg width="246" height="246" viewBox="0 0 246 246" fill="none" xmlns="http://www.w3.org/2000/svg">
<path d="M242.937 139.056C237.255 122.427 224.613 110.151 209.376 104.365C201.482 101.368 196.237 93.8643 196.121 85.421C196.119 85.2365 196.115 85.0515 196.111 84.8665C195.387 53.8369 169.451 28.9736 138.418 29.5065C120.115 29.8207 103.926 38.8059 93.7797 52.5305C85.0424 64.3496 71.4427 71.7325 56.7452 71.7248C56.3137 71.7248 55.8818 71.7291 55.4479 71.7387C25.6987 72.3892 0.402028 97.9137 0.00516092 127.667C-0.417171 159.345 25.1351 185.157 56.7158 185.157C81.1943 185.157 102.048 169.649 109.993 147.922C112.072 142.237 118.234 139.19 124.063 140.824C124.135 140.845 124.208 140.865 124.281 140.885C129.614 142.358 133.15 147.439 132.714 152.954C132.129 160.345 132.993 167.971 135.499 175.438C145.359 204.812 177.39 220.931 206.846 211.32C236.976 201.487 253.153 168.95 242.937 139.056Z" fill="url(#paint0_linear)"/>
<path opacity="0.1" d="M183.855 140.22L171.423 136.68C170.205 131.717 168.245 127.043 165.666 122.789L171.956 111.49C172.489 110.53 172.322 109.328 171.545 108.551L163.047 100.054C162.27 99.2764 161.068 99.1091 160.108 99.6425L148.809 105.933C145.421 103.878 141.763 102.225 137.908 101.018V77.5207C137.908 76.1211 137.6 74.7364 137.013 73.4665L127.361 52.7103C125.64 49.0025 120.364 49.0025 118.642 52.7103L108.985 73.4665C108.394 74.7359 108.09 76.1211 108.09 77.5207V101.018C104.235 102.225 100.577 103.878 97.1891 105.933L85.8904 99.6425C84.93 99.1091 83.7283 99.2764 82.9509 100.054L74.4538 108.551C73.6764 109.328 73.5092 110.53 74.0426 111.49L80.3329 122.789C77.7532 127.043 75.7934 131.717 74.5759 136.68L62.1433 140.22C61.0829 140.523 60.354 141.489 60.354 142.592V154.607C60.354 155.708 61.0834 156.676 62.1433 156.977L74.5759 160.517C75.7934 165.481 77.7532 170.155 80.3329 174.409L74.0426 185.707C73.5092 186.668 73.6764 187.87 74.4538 188.647L82.9509 197.144C83.7283 197.921 84.93 198.089 85.8904 197.555L97.1891 191.265C101.443 193.845 106.117 195.804 111.08 197.022L114.621 209.455C114.923 210.514 115.889 211.244 116.991 211.244H129.006C130.108 211.244 131.075 210.514 131.377 209.455L134.917 197.022C139.88 195.804 144.555 193.845 148.808 191.265L160.107 197.555C161.067 198.089 162.269 197.921 163.047 197.144L171.544 188.647C172.321 187.87 172.488 186.668 171.955 185.707L165.665 174.409C168.244 170.155 170.204 165.481 171.422 160.517L183.854 156.977C184.915 156.676 185.643 155.708 185.643 154.607V142.592C185.645 141.489 184.916 140.522 183.855 140.22ZM97.2348 148.598C97.2348 139.927 101.524 132.261 108.092 127.591V169.605C101.524 164.936 97.2348 157.27 97.2348 148.598ZM137.908 169.605V127.592C144.476 132.261 148.765 139.927 148.765 148.599C148.765 157.27 144.476 164.936 137.908 169.605Z" fill="#590BB2"/>
<path d="M213.632 140.354H205.347C203.713 140.354 202.388 139.029 202.388 137.395V129.11C202.388 127.476 203.713 126.151 205.347 126.151H213.632C215.266 126.151 216.591 127.476 216.591 129.11V137.395C216.591 139.029 215.266 140.354 213.632 140.354Z" fill="#FF786B"/>
<path d="M40.6531 140.354H32.3679C30.7338 140.354 29.4092 139.029 29.4092 137.395V129.11C29.4092 127.476 30.7338 126.151 32.3679 126.151H40.6531C42.2872 126.151 43.6118 127.476 43.6118 129.11V137.395C43.6118 139.029 42.2872 140.354 40.6531 140.354Z" fill="#FF786B"/>
<path d="M127.142 46.763H118.857C117.223 46.763 115.898 45.4383 115.898 43.8042V35.5185C115.898 33.8845 117.223 32.5598 118.857 32.5598H127.142C128.776 32.5598 130.101 33.8845 130.101 35.5185V43.8037C130.101 45.4378 128.776 46.763 127.142 46.763Z" fill="#FF786B"/>
<path d="M127.142 46.763H118.857C117.223 46.763 115.898 45.4383 115.898 43.8042V35.5185C115.898 33.8845 117.223 32.5598 118.857 32.5598H127.142C128.776 32.5598 130.101 33.8845 130.101 35.5185V43.8037C130.101 45.4378 128.776 46.763 127.142 46.763Z" fill="#FF786B"/>
<path d="M216.592 46.9682C220.627 46.9682 223.899 43.6967 223.899 39.6612C223.899 35.6257 220.627 32.3542 216.592 32.3542C212.556 32.3542 209.285 35.6257 209.285 39.6612C209.285 43.6967 212.556 46.9682 216.592 46.9682Z" fill="#FF786B"/>
<path d="M29.4085 46.9682C33.4441 46.9682 36.7155 43.6967 36.7155 39.6612C36.7155 35.6257 33.4441 32.3542 29.4085 32.3542C25.373 32.3542 22.1016 35.6257 22.1016 39.6612C22.1016 43.6967 25.373 46.9682 29.4085 46.9682Z" fill="#FF786B"/>
<path d="M183.856 150.31L171.423 146.77C170.206 141.807 168.246 137.132 165.666 132.879L171.956 121.58C172.49 120.62 172.322 119.418 171.545 118.641L163.048 110.144C162.271 109.366 161.069 109.199 160.108 109.732L148.81 116.023C144.556 113.443 139.882 111.483 134.918 110.266L131.378 97.833C131.076 96.7731 130.109 96.0437 129.008 96.0437H116.993C115.891 96.0437 114.924 96.7731 114.622 97.833L111.082 110.266C106.119 111.483 101.444 113.443 97.1906 116.023L85.8919 109.732C84.9314 109.199 83.7298 109.366 82.9524 110.144L74.4553 118.641C73.6779 119.418 73.5107 120.62 74.044 121.58L80.3343 132.879C77.7547 137.132 75.7949 141.806 74.5773 146.77L62.1447 150.31C61.0848 150.612 60.3555 151.579 60.3555 152.681V164.696C60.3555 165.798 61.0848 166.765 62.1447 167.067L74.5773 170.607C75.7949 175.57 77.7547 180.245 80.3343 184.498L74.044 195.797C73.5107 196.758 73.6779 197.959 74.4553 198.737L82.9524 207.234C83.7298 208.011 84.9314 208.178 85.8919 207.645L97.1906 201.355C101.444 203.934 106.118 205.894 111.082 207.112L114.622 219.544C114.924 220.604 115.891 221.334 116.993 221.334H129.008C130.109 221.334 131.077 220.604 131.378 219.544L134.918 207.112C139.882 205.894 144.556 203.934 148.81 201.355L160.108 207.645C161.069 208.178 162.271 208.011 163.048 207.234L171.545 198.737C172.322 197.959 172.49 196.758 171.956 195.797L165.666 184.498C168.246 180.245 170.206 175.571 171.423 170.607L183.856 167.067C184.916 166.765 185.645 165.798 185.645 164.696V152.681C185.645 151.579 184.916 150.612 183.856 150.31ZM123 184.454C108.771 184.454 97.2348 172.917 97.2348 158.689C97.2348 144.46 108.771 132.924 123 132.924C137.229 132.924 148.765 144.46 148.765 158.689C148.765 172.917 137.229 184.454 123 184.454Z" fill="#D6B0FF"/>
<path d="M137.908 87.6106V179.705C133.7 182.697 128.554 184.452 123 184.452C117.44 184.452 112.299 182.692 108.091 179.696V87.6106C108.091 86.211 108.394 84.8263 108.986 83.5564L118.643 62.8001C120.364 59.0923 125.64 59.0923 127.362 62.8001L137.014 83.5564C137.6 84.8263 137.908 86.211 137.908 87.6106Z" fill="#FFA052"/>
<path d="M123 90.3757V184.452C117.44 184.452 112.299 182.692 108.091 179.696V90.3757H123Z" fill="#FFE783"/>
<path d="M118.642 62.8015L108.987 83.5539C108.396 84.8248 108.09 86.2095 108.09 87.6115V93.7413C109.807 94.6648 111.774 95.189 113.861 95.189C116.271 95.189 118.519 94.4875 120.409 93.2777C122.004 92.2571 124.055 92.3076 125.656 93.318C127.533 94.5028 129.756 95.189 132.142 95.189C134.229 95.189 136.192 94.6648 137.909 93.7413V87.6105C137.909 86.2095 137.603 84.8252 137.012 83.5544L127.361 62.801C125.64 59.0933 120.363 59.0933 118.642 62.8015Z" fill="#FFD5B8"/>
<path d="M118.642 62.8017L113.361 74.1619C115.992 76.312 119.344 77.6054 122.999 77.6054C126.659 77.6054 130.016 76.3115 132.642 74.1571L127.361 62.8017C125.64 59.0934 120.363 59.0934 118.642 62.8017Z" fill="#B557FF"/>
<path d="M216.591 49.371C221.945 49.371 226.301 45.0156 226.301 39.6612C226.301 34.3074 221.945 29.9519 216.591 29.9519C212.068 29.9519 208.268 33.0653 207.195 37.2589H132.504V35.5191C132.504 32.5628 130.098 30.1575 127.143 30.1575H118.857C115.902 30.1575 113.496 32.5628 113.496 35.5191V37.2589H38.8051C37.7317 33.0653 33.9321 29.9519 29.4085 29.9519C24.0547 29.9519 19.6992 34.3074 19.6992 39.6612C19.6992 45.0156 24.0547 49.371 29.4085 49.371C33.9321 49.371 37.7317 46.2571 38.8051 42.0636H94.1133C80.1994 46.8389 67.5861 55.0468 57.4444 66.1149C42.9371 81.9473 34.7163 102.332 34.1431 123.749H32.3677C29.4114 123.749 27.0062 126.154 27.0062 129.11V137.395C27.0062 140.351 29.4114 142.756 32.3677 142.756H40.6525C43.6088 142.756 46.014 140.351 46.014 137.395V129.11C46.014 126.154 43.6088 123.749 40.6525 123.749H38.9506C39.5224 103.537 47.294 84.3044 60.9873 69.3609C74.7643 54.3251 93.358 44.8642 113.496 42.5983V43.8043C113.496 46.7601 115.902 49.1654 118.857 49.1654H127.143C130.098 49.1654 132.504 46.7601 132.504 43.8043V42.5983C152.642 44.8642 171.235 54.3256 185.012 69.3604C198.705 84.3049 206.477 103.537 207.049 123.749H205.347C202.391 123.749 199.986 126.155 199.986 129.111V137.396C199.986 140.352 202.391 142.757 205.347 142.757H213.632C216.588 142.757 218.993 140.352 218.993 137.396V129.111C218.993 126.155 216.588 123.749 213.632 123.749H211.856C211.283 102.332 203.062 81.9468 188.554 66.1144C178.413 55.0468 165.8 46.8399 151.886 42.064H207.194C208.268 46.2571 212.068 49.371 216.591 49.371ZM41.2098 129.11V137.395C41.2098 137.702 40.96 137.952 40.6529 137.952H32.3677C32.0602 137.952 31.8109 137.702 31.8109 137.395V129.11C31.8109 128.803 32.0607 128.554 32.3677 128.554H40.6525C40.96 128.554 41.2098 128.803 41.2098 129.11ZM214.189 129.11V137.395C214.189 137.702 213.939 137.952 213.632 137.952H205.348C205.04 137.952 204.791 137.702 204.791 137.395V129.11C204.791 128.803 205.041 128.554 205.348 128.554H213.632C213.939 128.554 214.189 128.803 214.189 129.11ZM216.591 34.7566C219.296 34.7566 221.496 36.9567 221.496 39.6612C221.496 42.3658 219.296 44.5663 216.591 44.5663C213.887 44.5663 211.686 42.3658 211.686 39.6612C211.686 36.9567 213.887 34.7566 216.591 34.7566ZM29.4085 44.5663C26.704 44.5663 24.5039 42.3658 24.5039 39.6612C24.5039 36.9567 26.704 34.7566 29.4085 34.7566C32.1131 34.7566 34.3136 36.9567 34.3136 39.6612C34.3136 42.3658 32.1131 44.5663 29.4085 44.5663ZM127.699 43.8038C127.699 44.1108 127.449 44.3602 127.143 44.3602H118.857C118.55 44.3602 118.301 44.1104 118.301 43.8038V35.5191C118.301 35.2116 118.551 34.9622 118.857 34.9622H127.143C127.45 34.9622 127.699 35.2121 127.699 35.5191V43.8038Z" fill="#590BB2"/>
<path d="M184.513 148L173.402 144.836C172.253 140.644 170.587 136.622 168.434 132.846L174.056 122.746C175.105 120.857 174.77 118.471 173.243 116.942L164.746 108.445C163.218 106.918 160.832 106.582 158.939 107.634L148.841 113.255C146.123 111.706 143.263 110.405 140.312 109.369V87.6126C140.312 85.8733 139.924 84.1205 139.192 82.5436L129.54 61.7874C128.343 59.2145 125.838 57.616 123 57.616C120.163 57.6164 117.657 59.2145 116.461 61.7874L106.809 82.5441C106.076 84.1205 105.689 85.8733 105.689 87.6126V109.367C102.736 110.403 99.8764 111.706 97.1574 113.256L87.057 107.632C85.1678 106.584 82.7804 106.918 81.2534 108.446L72.7554 116.943C71.2285 118.471 70.8945 120.857 71.9444 122.75L77.5654 132.847C75.4129 136.623 73.7461 140.645 72.5968 144.837L61.4865 148C59.4056 148.592 57.9521 150.517 57.9521 152.682V164.697C57.9521 166.861 59.4056 168.786 61.486 169.378L72.5968 172.542C73.7461 176.734 75.4124 180.756 77.5654 184.531L71.9424 194.632C70.8941 196.521 71.2285 198.907 72.7554 200.435L81.253 208.933C82.7808 210.46 85.1673 210.797 87.0594 209.744L97.1574 204.123C100.933 206.275 104.955 207.942 109.147 209.091L112.31 220.202C112.902 222.283 114.828 223.736 116.992 223.736H129.007C131.171 223.736 133.096 222.283 133.688 220.202L136.852 209.091C141.044 207.942 145.066 206.276 148.841 204.123L158.941 209.745C160.831 210.796 163.218 210.461 164.746 208.933L173.244 200.435C174.771 198.907 175.105 196.521 174.055 194.629L168.434 184.531C170.587 180.755 172.253 176.733 173.403 172.542L184.513 169.378C186.594 168.786 188.047 166.861 188.047 164.697V152.682C188.047 150.517 186.593 148.592 184.513 148ZM122.999 104.262C121.672 104.262 120.597 105.337 120.597 106.664V181.928C108.84 180.721 99.6371 170.759 99.6371 158.688C99.6371 152.874 101.847 147.283 105.689 143.022V166.463C105.689 167.79 106.764 168.866 108.091 168.866C109.419 168.866 110.494 167.79 110.494 166.463V97.1936C111.594 97.4536 112.724 97.5915 113.861 97.5915C116.651 97.5915 119.362 96.7996 121.704 95.3011C122.485 94.7999 123.534 94.8201 124.374 95.3501C126.697 96.8165 129.383 97.5915 132.142 97.5915C133.278 97.5915 134.409 97.4536 135.508 97.1931V178.045C135.508 178.161 135.527 178.272 135.543 178.383C132.553 180.294 129.106 181.548 125.402 181.928V106.664C125.401 105.337 124.326 104.262 122.999 104.262ZM140.313 142.999C144.195 147.259 146.363 152.786 146.363 158.688C146.363 164.712 144.07 170.21 140.313 174.358V142.999ZM120.819 63.8131C121.419 62.5216 122.641 62.4211 123.001 62.4211C123.361 62.4211 124.583 62.5216 125.184 63.8135L129.617 73.3475C127.63 74.5472 125.339 75.2035 122.999 75.2035C120.627 75.2035 118.374 74.5621 116.383 73.3523L120.819 63.8131ZM111.166 84.5698L114.346 77.7322C116.976 79.2126 119.962 80.0082 122.999 80.0082C126.041 80.0082 129.029 79.2126 131.656 77.7318L134.835 84.5698C135.275 85.5163 135.508 86.5685 135.508 87.6126V92.191C134.437 92.5845 133.311 92.7868 132.142 92.7868C130.292 92.7868 128.492 92.2683 126.937 91.2867C124.529 89.7665 121.458 89.7545 119.113 91.2545C117.547 92.2573 115.73 92.7868 113.86 92.7868C112.708 92.7868 111.566 92.5797 110.493 92.1886V87.6121C110.494 86.5685 110.726 85.5158 111.166 84.5698ZM183.243 164.696C183.243 164.725 183.225 164.748 183.197 164.756L170.765 168.297C169.935 168.533 169.295 169.197 169.089 170.035C167.945 174.699 166.102 179.146 163.612 183.252C163.164 183.99 163.147 184.912 163.567 185.666L169.856 196.962C169.869 196.986 169.865 197.019 169.847 197.037L161.349 205.535C161.33 205.553 161.298 205.557 161.277 205.546L149.978 199.255C149.223 198.835 148.302 198.852 147.564 199.3C143.457 201.791 139.01 203.634 134.346 204.777C133.508 204.983 132.844 205.623 132.608 206.453L129.067 218.886C129.06 218.913 129.037 218.93 129.007 218.93H116.993C116.963 218.93 116.94 218.913 116.932 218.885L113.392 206.453C113.156 205.622 112.492 204.983 111.654 204.777C106.99 203.633 102.543 201.79 98.436 199.3C97.698 198.852 96.7769 198.835 96.0216 199.255L84.7253 205.545C84.7008 205.558 84.6701 205.554 84.6508 205.535L76.1537 197.038C76.1355 197.019 76.1312 196.986 76.1427 196.965L82.433 185.666C82.8534 184.912 82.8361 183.99 82.3883 183.252C79.8976 179.146 78.0545 174.699 76.911 170.035C76.7048 169.197 76.0653 168.533 75.2356 168.297L62.8025 164.756C62.7751 164.748 62.7578 164.725 62.7578 164.696V152.681C62.7578 152.652 62.7751 152.629 62.803 152.62L75.2356 149.08C76.0658 148.844 76.7053 148.18 76.911 147.343C78.055 142.678 79.898 138.231 82.3883 134.124C82.8361 133.386 82.8534 132.464 82.433 131.71L76.1446 120.415C76.1316 120.391 76.1355 120.358 76.1537 120.339L84.6513 111.842C84.6701 111.824 84.7032 111.82 84.7234 111.831L96.0221 118.121C96.7774 118.542 97.6984 118.524 98.4364 118.077C100.745 116.676 103.175 115.476 105.69 114.49V136.483C98.8833 141.801 94.8329 150.039 94.8329 158.688C94.8329 174.22 107.469 186.856 123 186.856C138.532 186.856 151.168 174.22 151.168 158.688C151.168 149.931 147.213 141.859 140.313 136.479V114.491C142.826 115.476 145.257 116.677 147.564 118.077C148.302 118.524 149.223 118.542 149.979 118.121L161.274 111.833C161.298 111.82 161.331 111.823 161.349 111.843L169.847 120.339C169.865 120.358 169.869 120.391 169.858 120.412L163.567 131.711C163.147 132.465 163.164 133.387 163.612 134.125C166.103 138.231 167.946 142.679 169.089 147.343C169.295 148.181 169.935 148.845 170.765 149.081L183.198 152.621C183.225 152.629 183.243 152.652 183.243 152.682V164.696Z" fill="#590BB2"/>
<path opacity="0.1" d="M216.591 36.8788C220.627 36.8788 223.898 33.6073 223.898 29.5719C223.898 25.5364 220.627 22.2649 216.591 22.2649C213.399 22.2649 210.691 24.316 209.697 27.1695H130.101V25.4293C130.101 23.7952 128.777 22.4705 127.142 22.4705H118.857C117.223 22.4705 115.898 23.7952 115.898 25.4293V27.1695H36.3033C35.3087 24.316 32.6012 22.2649 29.4085 22.2649C25.3731 22.2644 22.1016 25.5359 22.1016 29.5714C22.1016 33.6068 25.3731 36.8784 29.4085 36.8784C32.6012 36.8784 35.3087 34.8272 36.3033 31.9732H97.8676C61.4135 42.7362 34.6408 76.2869 34.12 116.061H32.3673C30.7332 116.061 29.4085 117.386 29.4085 119.02V127.305C29.4085 128.94 30.7332 130.264 32.3673 130.264H40.6525C42.2865 130.264 43.6117 128.94 43.6117 127.305V119.02C43.6117 117.386 42.287 116.061 40.6525 116.061H38.9266C39.5286 72.6228 73.2306 37.0432 115.899 33.4574V33.714C115.899 35.3481 117.223 36.6732 118.858 36.6732H127.143C128.777 36.6732 130.102 35.3485 130.102 33.714V33.4574C172.77 37.0427 206.472 72.6224 207.074 116.061H205.348C203.714 116.061 202.389 117.386 202.389 119.02V127.305C202.389 128.94 203.714 130.264 205.348 130.264H213.633C215.267 130.264 216.592 128.94 216.592 127.305V119.02C216.592 117.386 215.267 116.061 213.633 116.061H211.88C211.36 76.2874 184.587 42.7362 148.133 31.9732H209.697C210.691 34.8277 213.398 36.8788 216.591 36.8788Z" fill="#590BB2"/>
<path d="M28.0074 76.4984C26.6803 76.4984 25.605 75.4231 25.605 74.096C25.605 72.5076 24.313 71.2156 22.7246 71.2156C21.3976 71.2156 20.3223 70.1403 20.3223 68.8133C20.3223 67.4862 21.3976 66.4109 22.7246 66.4109C24.313 66.4109 25.605 65.1189 25.605 63.5305C25.605 62.2035 26.6803 61.1282 28.0074 61.1282C29.3344 61.1282 30.4097 62.2035 30.4097 63.5305C30.4097 65.1189 31.7017 66.4109 33.2901 66.4109C34.6172 66.4109 35.6925 67.4862 35.6925 68.8133C35.6925 70.1403 34.6172 71.2156 33.2901 71.2156C31.7017 71.2156 30.4097 72.5076 30.4097 74.096C30.4097 75.4231 29.3344 76.4984 28.0074 76.4984Z" fill="#FFE783"/>
<path d="M166.011 89.8966C164.684 89.8966 163.609 88.8213 163.609 87.4942C163.609 85.9058 162.317 84.6138 160.728 84.6138C159.401 84.6138 158.326 83.5385 158.326 82.2115C158.326 80.8844 159.401 79.8091 160.728 79.8091C162.317 79.8091 163.609 78.5171 163.609 76.9287C163.609 75.6017 164.684 74.5264 166.011 74.5264C167.338 74.5264 168.414 75.6017 168.414 76.9287C168.414 78.5171 169.706 79.8091 171.294 79.8091C172.621 79.8091 173.696 80.8844 173.696 82.2115C173.696 83.5385 172.621 84.6138 171.294 84.6138C169.706 84.6138 168.414 85.9058 168.414 87.4942C168.414 88.8208 167.338 89.8966 166.011 89.8966Z" fill="#C182F9"/>
<path d="M48.8945 210.439C48.2799 210.439 47.6645 210.205 47.196 209.736L41.9137 204.453C40.9754 203.515 40.9754 201.994 41.9137 201.056L47.196 195.774C48.1334 194.836 49.6555 194.836 50.5929 195.774L55.8752 201.056C56.8135 201.994 56.8135 203.515 55.8752 204.453L50.5929 209.736C50.124 210.205 49.509 210.439 48.8945 210.439ZM47.0096 202.755L48.8945 204.64L50.7793 202.755L48.8945 200.87L47.0096 202.755Z" fill="#FF786B"/>
<path d="M207.841 172.238C207.227 172.238 206.611 172.004 206.143 171.535L200.861 166.252C199.922 165.314 199.922 163.793 200.861 162.855L206.143 157.573C207.08 156.635 208.602 156.635 209.54 157.573L214.822 162.855C215.76 163.793 215.76 165.314 214.822 166.252L209.54 171.535C209.071 172.004 208.456 172.238 207.841 172.238ZM205.956 164.553L207.841 166.438L209.726 164.553L207.841 162.669L205.956 164.553Z" fill="#FF786B"/>
<defs>
<linearGradient id="paint0_linear" x1="108.497" y1="121.799" x2="415.551" y2="121.799" gradientUnits="userSpaceOnUse">
<stop offset="0.000701121" stop-color="#FFF0D5"/>
<stop offset="0.5112" stop-color="#FFDFFF"/>
<stop offset="1" stop-color="#D9CEFF"/>
</linearGradient>
</defs>
</svg>
