<svg width="219" height="447" viewBox="0 0 219 447" fill="none" xmlns="http://www.w3.org/2000/svg">
<path fill-rule="evenodd" clip-rule="evenodd" d="M145 8H199C205.627 8 211 13.3726 211 20V427C211 433.627 205.627 439 199 439H20C13.3726 439 8 433.627 8 427V20C8 13.3726 13.3726 8 20 8H75V16C75 18.7614 77.2386 21 80 21H140C142.761 21 145 18.7614 145 16V8ZM0 20C0 8.95429 8.95431 0 20 0H199C210.046 0 219 8.95431 219 20V427C219 438.046 210.046 447 199 447H20C8.95431 447 0 438.046 0 427V20Z" fill="#7A86DD"/>
</svg>
