<svg width="184" height="376" viewBox="0 0 184 376" fill="none" xmlns="http://www.w3.org/2000/svg">
<path fill-rule="evenodd" clip-rule="evenodd" d="M121.686 8H163.788C170.416 8 175.788 13.3726 175.788 20V355.129C175.788 361.757 170.416 367.129 163.788 367.129H20C13.3726 367.129 8 361.757 8 355.129V20C8 13.3726 13.3726 8 20 8H62.9412V12.6235C62.9412 15.385 65.1798 17.6235 67.9412 17.6235H116.686C119.448 17.6235 121.686 15.385 121.686 12.6235V8ZM0 20C0 8.95428 8.9543 0 20 0H163.788C174.834 0 183.788 8.9543 183.788 20V355.129C183.788 366.175 174.834 375.129 163.788 375.129H20C8.95432 375.129 0 366.175 0 355.129V20Z" fill="#FF786B"/>
</svg>
