<svg width="119" height="81" viewBox="0 0 119 81" fill="none" xmlns="http://www.w3.org/2000/svg">
<path d="M71.1255 20.3409C71.1255 17.4879 71.7776 14.8386 73.0818 12.3932C74.3861 9.94773 76.1386 7.82834 78.3395 6.03501C80.4589 4.32319 82.8636 2.97819 85.5536 2C88.2436 0.940308 90.9744 0.410459 93.7459 0.410459C97.7402 0.410458 101.286 1.22561 104.384 2.85591C107.481 4.48622 110.13 6.64637 112.331 9.33637C114.451 12.1079 116.081 15.2462 117.222 18.7514C118.363 22.338 118.934 26.047 118.934 29.8782C118.934 39.7415 116.611 48.8305 111.965 57.145C107.237 65.5411 99.6558 73.4073 89.2218 80.7436L77.2391 69.6168C84.82 64.2368 90.363 58.8976 93.8682 53.5991C97.3733 48.3821 99.3297 43.1652 99.7373 37.9482C98.433 38.5188 96.8842 39.0486 95.0909 39.5377C93.2161 40.1083 91.3412 40.3936 89.4664 40.3936C86.9394 40.3936 84.5755 39.9046 82.3745 38.9264C80.0921 37.9482 78.1358 36.5624 76.5055 34.7691C74.8752 32.9758 73.5709 30.8564 72.5927 28.4109C71.6145 25.9655 71.1255 23.2755 71.1255 20.3409ZM0.197722 20.3409C0.197722 17.4879 0.849842 14.8386 2.15408 12.3932C3.45833 9.94774 5.2109 7.82835 7.41181 6.03501C9.5312 4.32319 11.9359 2.97819 14.6259 2.00001C17.3159 0.940314 20.0467 0.410465 22.8182 0.410465C26.8124 0.410464 30.3583 1.22562 33.4559 2.85592C36.5535 4.48622 39.2027 6.64637 41.4036 9.33637C43.523 12.1079 45.1533 15.2462 46.2945 18.7514C47.4358 22.338 48.0064 26.047 48.0064 29.8782C48.0064 39.7415 45.6832 48.8305 41.0368 57.145C36.3089 65.5411 28.728 73.4073 18.2941 80.7436L6.31136 69.6168C13.8923 64.2368 19.4353 58.8976 22.9405 53.5991C26.4456 48.3821 28.402 43.1652 28.8095 37.9482C27.5053 38.5188 25.9565 39.0486 24.1632 39.5377C22.2883 40.1083 20.4135 40.3936 18.5386 40.3936C16.0117 40.3936 13.6477 39.9046 11.4468 38.9264C9.16439 37.9482 7.20803 36.5624 5.57772 34.7691C3.94742 32.9758 2.64318 30.8564 1.66499 28.4109C0.686813 25.9655 0.197722 23.2755 0.197722 20.3409Z" fill="#DD7065" fill-opacity="0.3"/>
</svg>
