<svg width="246" height="246" viewBox="0 0 246 246" fill="none" xmlns="http://www.w3.org/2000/svg">
<g clip-path="url(#clip0)">
<path d="M183.83 83.6092C183.738 83.6087 183.645 83.6082 183.553 83.6082C168.162 83.5842 153.579 76.9566 143.463 65.3571C128.392 48.0776 106.178 37.1911 81.4241 37.3011C36.4945 37.5 -0.574151 75.2485 0.00673552 120.175C0.584739 164.852 36.9812 200.891 81.7955 200.891C94.4525 200.891 106.437 198.015 117.133 192.881C126.355 188.454 137.343 189.621 145.465 195.841C155.969 203.886 169.099 208.676 183.348 208.7C217.645 208.757 245.8 180.823 245.999 146.527C246.2 111.909 218.4 83.8124 183.83 83.6092Z" fill="url(#paint0_linear)"/>
<path opacity="0.1" d="M203.937 23.7917H98.2906C94.3143 23.7917 91.0874 27.0186 91.0874 30.9949V70.5053H52.9848C50.988 70.5053 49.3693 72.124 49.3693 74.1208V108.027C49.3693 110.024 50.988 111.643 52.9848 111.643H91.0874V170.504H41.1523C38.4982 170.504 36.3462 172.656 36.3462 175.31V208.282C36.3462 210.936 38.4977 213.088 41.1523 213.088H159.746C162.4 213.088 164.552 210.937 164.552 208.282V189.093H203.937C207.913 189.093 211.14 185.866 211.14 181.89V30.9949C211.14 27.0191 207.913 23.7917 203.937 23.7917Z" fill="#590BB2"/>
<path d="M182.247 224.168C180.92 224.168 179.845 223.093 179.845 221.766C179.845 220.174 178.55 218.879 176.958 218.879C175.631 218.879 174.556 217.803 174.556 216.476C174.556 215.149 175.631 214.074 176.958 214.074C178.55 214.074 179.845 212.779 179.845 211.187C179.845 209.86 180.92 208.784 182.247 208.784C183.574 208.784 184.649 209.86 184.649 211.187C184.649 212.779 185.944 214.074 187.536 214.074C188.864 214.074 189.939 215.149 189.939 216.476C189.939 217.803 188.864 218.879 187.536 218.879C185.945 218.879 184.649 220.173 184.649 221.766C184.649 223.093 183.574 224.168 182.247 224.168Z" fill="#C182F9"/>
<path d="M59.6005 35.8093C58.2739 35.8093 57.1981 34.734 57.1981 33.407C57.1981 31.8137 55.9018 30.517 54.3081 30.517C52.9815 30.517 51.9058 29.4417 51.9058 28.1146C51.9058 26.7876 52.9815 25.7123 54.3081 25.7123C55.9018 25.7123 57.1981 24.416 57.1981 22.8218C57.1981 21.4947 58.2739 20.4194 59.6005 20.4194C60.927 20.4194 62.0028 21.4947 62.0028 22.8218C62.0028 24.4155 63.2991 25.7123 64.8928 25.7123C66.2194 25.7123 67.2952 26.7876 67.2952 28.1146C67.2952 29.4417 66.2194 30.517 64.8928 30.517C63.2991 30.517 62.0028 31.8133 62.0028 33.407C62.0028 34.734 60.927 35.8093 59.6005 35.8093Z" fill="#FFE783"/>
<path d="M49.369 72.545C48.7319 72.545 48.1208 72.2923 47.6701 71.8412L42.3777 66.5483C41.927 66.0976 41.6743 65.487 41.6743 64.8499C41.6743 64.2128 41.9275 63.6016 42.3777 63.1514L47.6701 57.859C48.6084 56.9207 50.1291 56.9207 51.0675 57.859L56.3598 63.1514C56.8105 63.6021 57.0632 64.2128 57.0632 64.8499C57.0632 65.487 56.81 66.0981 56.3598 66.5483L51.0675 71.8412C50.6173 72.2923 50.0061 72.545 49.369 72.545ZM47.4741 64.8499L49.369 66.7448L51.264 64.8499L49.369 62.9554L47.4741 64.8499Z" fill="#FFA052"/>
<path d="M75.4857 64.709C74.1592 64.709 73.0834 63.6337 73.0834 62.3066C73.0834 60.7129 71.7871 59.4161 70.1934 59.4161C68.8668 59.4161 67.791 58.3409 67.791 57.0138C67.791 55.6867 68.8668 54.6115 70.1934 54.6115C71.7871 54.6115 73.0834 53.3152 73.0834 51.7214C73.0834 50.3944 74.1592 49.3191 75.4857 49.3191C76.8123 49.3191 77.8881 50.3944 77.8881 51.7214C77.8881 53.3147 79.1844 54.6115 80.7781 54.6115C82.1047 54.6115 83.1804 55.6867 83.1804 57.0138C83.1804 58.3409 82.1047 59.4161 80.7781 59.4161C79.1844 59.4161 77.8881 60.7124 77.8881 62.3066C77.8881 63.6332 76.8123 64.709 75.4857 64.709Z" fill="#C182F9"/>
<path d="M211.14 41.0848V191.98C211.14 195.956 207.913 199.183 203.937 199.183H98.2906C94.3142 199.183 91.0874 195.956 91.0874 191.98V41.0848C91.0874 37.1084 94.3142 33.8816 98.2906 33.8816H203.937C207.913 33.8816 211.14 37.1084 211.14 41.0848Z" fill="#AFABC6"/>
<path d="M91.0874 180.594V191.979C91.0874 195.956 94.3142 199.183 98.2906 199.183H203.937C207.913 199.183 211.14 195.956 211.14 191.979V180.594H91.0874Z" fill="#DDD9E4"/>
<path d="M117.298 33.8804V199.182H98.2906C94.3161 199.182 91.0864 195.957 91.0864 191.978V41.0845C91.0864 37.1101 94.3161 33.8804 98.2906 33.8804H117.298Z" fill="#E8E6ED"/>
<path d="M108.686 91.0185V124.925C108.686 126.919 107.071 128.539 105.072 128.539H91.0864V87.3997H105.072C107.072 87.3997 108.686 89.0193 108.686 91.0185Z" fill="#DDD9E4"/>
<path d="M211.14 57.0138V41.0848C211.14 37.1065 207.915 33.8816 203.937 33.8816H98.2906C94.3123 33.8816 91.0874 37.1065 91.0874 41.0848V57.0142H211.14V57.0138Z" fill="#FFA052"/>
<path d="M153.495 111.101H145.935C144.678 111.101 143.555 112.019 143.436 113.271C143.299 114.706 144.424 115.914 145.831 115.914H153.495C154.824 115.914 155.901 114.836 155.901 113.508C155.901 112.179 154.824 111.101 153.495 111.101Z" fill="#E2CCFF"/>
<path d="M182.534 111.101H164.555C163.226 111.101 162.149 112.178 162.149 113.507C162.149 114.836 163.226 115.913 164.555 115.913H182.638C184.045 115.913 185.17 114.705 185.033 113.27C184.914 112.019 183.791 111.101 182.534 111.101Z" fill="#FFE783"/>
<path d="M170.797 121.176H145.935C144.678 121.176 143.556 122.095 143.437 123.346C143.3 124.781 144.424 125.989 145.832 125.989H170.797C172.126 125.989 173.204 124.912 173.204 123.583C173.203 122.253 172.126 121.176 170.797 121.176Z" fill="#E2CCFF"/>
<path d="M196.952 121.176H181.856C180.527 121.176 179.45 122.253 179.45 123.582C179.45 124.911 180.527 125.988 181.856 125.988H197.056C198.463 125.988 199.588 124.781 199.451 123.345C199.332 122.095 198.209 121.176 196.952 121.176Z" fill="#FFE783"/>
<path d="M163.587 131.251H145.935C144.678 131.251 143.555 132.17 143.436 133.421C143.299 134.856 144.424 136.064 145.831 136.064H163.588C164.917 136.064 165.994 134.987 165.994 133.658C165.994 132.329 164.917 131.251 163.587 131.251Z" fill="#E2CCFF"/>
<path d="M182.534 131.251H174.648C173.319 131.251 172.242 132.329 172.242 133.658C172.242 134.987 173.319 136.064 174.648 136.064H182.638C184.045 136.064 185.17 134.856 185.033 133.421C184.914 132.17 183.791 131.251 182.534 131.251Z" fill="#FFE783"/>
<path d="M196.953 141.327H167.439C166.11 141.327 165.033 142.404 165.033 143.733C165.033 145.062 166.11 146.139 167.439 146.139H197.056C198.463 146.139 199.588 144.931 199.451 143.496C199.331 142.246 198.209 141.327 196.953 141.327Z" fill="#FFE783"/>
<path d="M156.378 141.327H145.935C144.678 141.327 143.555 142.246 143.436 143.497C143.299 144.932 144.424 146.14 145.831 146.14H156.378C157.707 146.14 158.785 145.063 158.785 143.734C158.785 142.404 157.707 141.327 156.378 141.327Z" fill="#E2CCFF"/>
<path d="M139.557 94.3511H131.516C130.259 94.3511 129.137 95.2697 129.018 96.5209C128.881 97.956 130.006 99.1639 131.413 99.1639H139.557C140.886 99.1639 141.964 98.0867 141.964 96.7577C141.963 95.4288 140.886 94.3511 139.557 94.3511Z" fill="#F5F4F9"/>
<path d="M182.534 94.3511H151.259C149.93 94.3511 148.852 95.4283 148.852 96.7573C148.852 98.0862 149.929 99.1635 151.259 99.1635H182.638C184.045 99.1635 185.17 97.9556 185.033 96.5204C184.914 95.2702 183.791 94.3511 182.534 94.3511Z" fill="#F5F4F9"/>
<path d="M139.557 159.504H131.516C130.259 159.504 129.137 160.422 129.018 161.673C128.881 163.109 130.006 164.317 131.413 164.317H139.557C140.886 164.317 141.964 163.239 141.964 161.91C141.963 160.581 140.886 159.504 139.557 159.504Z" fill="#F5F4F9"/>
<path d="M182.534 159.504H151.259C149.93 159.504 148.852 160.581 148.852 161.91C148.852 163.239 149.929 164.317 151.259 164.317H182.638C184.045 164.317 185.17 163.109 185.033 161.673C184.914 160.422 183.791 159.504 182.534 159.504Z" fill="#F5F4F9"/>
<path d="M105.072 121.732H52.9847C50.9878 121.732 49.3691 120.113 49.3691 118.116V84.2103C49.3691 82.2134 50.9878 80.5947 52.9847 80.5947H105.072C107.069 80.5947 108.688 82.2134 108.688 84.2103V118.116C108.688 120.113 107.069 121.732 105.072 121.732Z" fill="#C182F9"/>
<path d="M67.7895 109.352C67.1745 109.352 66.559 109.117 66.09 108.648L60.3047 102.863C59.3659 101.924 59.3659 100.403 60.3047 99.4637L66.09 93.6784C67.0279 92.74 68.551 92.74 69.4889 93.6784C70.4277 94.6172 70.4277 96.1389 69.4889 97.0777L65.4034 101.163L69.4889 105.249C70.4277 106.187 70.4277 107.709 69.4889 108.648C69.0199 109.118 68.4045 109.352 67.7895 109.352Z" fill="#F5F4F9"/>
<path d="M90.2673 92.9751C90.8823 92.9751 91.4978 93.21 91.9667 93.679L97.7521 99.4643C98.6909 100.403 98.6909 101.925 97.7521 102.864L91.9662 108.648C91.0284 109.587 89.5053 109.587 88.5674 108.648C87.6286 107.71 87.6286 106.188 88.5674 105.249L92.6528 101.164L88.5674 97.0783C87.6286 96.1395 87.6286 94.6178 88.5674 93.679C89.0368 93.21 89.6523 92.9751 90.2673 92.9751Z" fill="#F5F4F9"/>
<path d="M75.7592 109.353C75.3589 109.353 74.9529 109.252 74.5801 109.042C73.4241 108.389 73.0162 106.923 73.6691 105.767L80.2025 94.1967C80.855 93.0412 82.3214 92.6333 83.4769 93.2858C84.6329 93.9387 85.0409 95.4046 84.3879 96.5606L77.8545 108.131C77.4125 108.913 76.5981 109.353 75.7592 109.353Z" fill="#F5F4F9"/>
<path d="M159.746 223.178H41.1523C38.4982 223.178 36.3462 221.026 36.3462 218.372V185.4C36.3462 182.746 38.4977 180.594 41.1523 180.594H159.746C162.4 180.594 164.552 182.745 164.552 185.4V218.372C164.552 221.026 162.401 223.178 159.746 223.178Z" fill="#F5F4F9"/>
<path d="M109.375 43.0105C108.048 43.0105 106.972 44.0858 106.972 45.4128V45.4825C106.972 46.8096 108.048 47.8849 109.375 47.8849C110.701 47.8849 111.777 46.8096 111.777 45.4825V45.4128C111.777 44.0863 110.702 43.0105 109.375 43.0105Z" fill="#590BB2"/>
<path d="M118.655 43.0105C117.328 43.0105 116.252 44.0858 116.252 45.4128V45.4825C116.252 46.8096 117.328 47.8849 118.655 47.8849C119.981 47.8849 121.057 46.8096 121.057 45.4825V45.4128C121.057 44.0863 119.981 43.0105 118.655 43.0105Z" fill="#590BB2"/>
<path d="M127.935 43.0105C126.608 43.0105 125.532 44.0858 125.532 45.4128V45.4825C125.532 46.8096 126.608 47.8849 127.935 47.8849C129.262 47.8849 130.337 46.8096 130.337 45.4825V45.4128C130.337 44.0863 129.262 43.0105 127.935 43.0105Z" fill="#590BB2"/>
<path d="M203.937 31.4788H98.2906C92.9939 31.4788 88.6851 35.7881 88.6851 41.0843V67.3669C88.6851 68.6939 89.7609 69.7692 91.0874 69.7692C92.414 69.7692 93.4898 68.6939 93.4898 67.3669V59.4156H208.738V191.978C208.738 194.625 206.584 196.778 203.937 196.778H166.954V185.399C166.954 181.424 163.721 178.19 159.746 178.19H104.323C102.997 178.19 101.921 179.266 101.921 180.593C101.921 181.92 102.997 182.995 104.323 182.995H159.746C161.072 182.995 162.15 184.073 162.15 185.399V218.371C162.15 219.696 161.072 220.774 159.746 220.774H41.1523C39.8267 220.774 38.7485 219.696 38.7485 218.371V185.399C38.7485 184.073 39.8267 182.995 41.1523 182.995H91.0874C92.414 182.995 93.4898 181.92 93.4898 180.593V124.134H105.072C108.391 124.134 111.09 121.435 111.09 118.117V84.2107C111.09 80.8926 108.39 78.1933 105.072 78.1933H52.9848C49.6667 78.1933 46.967 80.8926 46.967 84.2107V98.7617H44.5166C38.687 98.7617 33.9438 103.504 33.9438 109.334V124.987C33.9438 130.817 38.687 135.559 44.5166 135.559H63.7175C66.9136 135.559 69.5134 138.16 69.5134 141.355C69.5134 144.551 66.9131 147.151 63.7175 147.151H44.5166C38.687 147.151 33.9438 151.894 33.9438 157.724C33.9438 163.554 38.687 168.297 44.5166 168.297H62.8421C66.0228 168.297 68.6101 170.884 68.6101 174.064V178.191H41.1523C37.1779 178.191 33.9438 181.425 33.9438 185.4V218.372C33.9438 222.346 37.1774 225.58 41.1523 225.58H159.746C163.72 225.58 166.954 222.346 166.954 218.372V201.584H203.937C209.233 201.584 213.543 197.275 213.543 191.979V41.0848C213.543 35.7881 209.233 31.4788 203.937 31.4788ZM51.7716 84.2102C51.7716 83.5414 52.316 82.9975 52.9848 82.9975H105.073C105.742 82.9975 106.286 83.5419 106.286 84.2102V118.116C106.286 118.785 105.742 119.329 105.073 119.329H52.9848C52.316 119.329 51.7716 118.785 51.7716 118.116V84.2102ZM62.8421 163.492H44.5166C41.3359 163.492 38.7485 160.904 38.7485 157.724C38.7485 154.544 41.3359 151.956 44.5166 151.956H63.7175C69.5629 151.956 74.3181 147.201 74.3181 141.355C74.3181 135.51 69.5629 130.755 63.7175 130.755H44.5166C41.3359 130.755 38.7485 128.167 38.7485 124.987V109.334C38.7485 106.154 41.3359 103.566 44.5166 103.566H46.967V118.117C46.967 121.435 49.6667 124.134 52.9848 124.134H88.6851V178.191H73.4148V174.064C73.4148 168.235 68.6721 163.492 62.8421 163.492ZM93.4898 54.6114V41.0848C93.4898 38.4374 95.6432 36.2839 98.2906 36.2839H203.937C206.584 36.2839 208.738 38.4374 208.738 41.0848V54.6114H93.4898Z" fill="#590BB2"/>
<path d="M108.024 140.262C108.024 138.935 106.948 137.86 105.622 137.86C104.295 137.86 103.219 138.935 103.219 140.262V140.332C103.219 141.659 104.295 142.735 105.622 142.735C106.948 142.735 108.024 141.659 108.024 140.332V140.262Z" fill="#590BB2"/>
<path d="M105.622 159.647C104.295 159.647 103.219 160.722 103.219 162.049V162.119C103.219 163.446 104.295 164.522 105.622 164.522C106.948 164.522 108.024 163.446 108.024 162.119V162.049C108.024 160.722 106.948 159.647 105.622 159.647Z" fill="#590BB2"/>
<path d="M49.8657 192.584C49.8657 191.257 48.79 190.182 47.4634 190.182C46.1368 190.182 45.061 191.257 45.061 192.584V192.639C45.061 193.967 46.1368 195.042 47.4634 195.042C48.79 195.042 49.8657 193.967 49.8657 192.639V192.584Z" fill="#590BB2"/>
<path d="M61.6401 192.584C61.6401 191.257 60.5644 190.182 59.2378 190.182C57.9112 190.182 56.8354 191.257 56.8354 192.584V192.639C56.8354 193.967 57.9112 195.042 59.2378 195.042C60.5644 195.042 61.6401 193.967 61.6401 192.639V192.584Z" fill="#590BB2"/>
<path d="M71.0127 195.042C72.3393 195.042 73.415 193.967 73.415 192.639V192.584C73.415 191.257 72.3393 190.182 71.0127 190.182C69.6861 190.182 68.6104 191.257 68.6104 192.584V192.639C68.6104 193.967 69.6861 195.042 71.0127 195.042Z" fill="#590BB2"/>
<path d="M85.1895 192.639V192.584C85.1895 191.257 84.1137 190.182 82.7871 190.182C81.4605 190.182 80.3848 191.257 80.3848 192.584V192.639C80.3848 193.967 81.4605 195.042 82.7871 195.042C84.1137 195.042 85.1895 193.967 85.1895 192.639Z" fill="#590BB2"/>
<path d="M96.9639 192.639V192.584C96.9639 191.257 95.8881 190.182 94.5615 190.182C93.2349 190.182 92.1592 191.257 92.1592 192.584V192.639C92.1592 193.967 93.2349 195.042 94.5615 195.042C95.8881 195.042 96.9639 193.967 96.9639 192.639Z" fill="#590BB2"/>
<path d="M108.739 192.639V192.584C108.739 191.257 107.663 190.182 106.336 190.182C105.01 190.182 103.934 191.257 103.934 192.584V192.639C103.934 193.967 105.01 195.042 106.336 195.042C107.663 195.042 108.739 193.967 108.739 192.639Z" fill="#590BB2"/>
<path d="M120.514 192.639V192.584C120.514 191.257 119.438 190.182 118.111 190.182C116.785 190.182 115.709 191.257 115.709 192.584V192.639C115.709 193.967 116.785 195.042 118.111 195.042C119.438 195.042 120.514 193.967 120.514 192.639Z" fill="#590BB2"/>
<path d="M129.886 195.042C131.213 195.042 132.288 193.967 132.288 192.639V192.584C132.288 191.257 131.213 190.182 129.886 190.182C128.559 190.182 127.483 191.257 127.483 192.584V192.639C127.483 193.967 128.559 195.042 129.886 195.042Z" fill="#590BB2"/>
<path d="M141.661 195.042C142.988 195.042 144.063 193.967 144.063 192.639V192.584C144.063 191.257 142.988 190.182 141.661 190.182C140.334 190.182 139.258 191.257 139.258 192.584V192.639C139.258 193.967 140.334 195.042 141.661 195.042Z" fill="#590BB2"/>
<path d="M153.436 195.042C154.763 195.042 155.838 193.967 155.838 192.639V192.584C155.838 191.257 154.763 190.182 153.436 190.182C152.108 190.182 151.033 191.257 151.033 192.584V192.639C151.033 193.967 152.108 195.042 153.436 195.042Z" fill="#590BB2"/>
<path d="M50.9482 201.858V201.913C50.9482 203.24 52.024 204.316 53.3506 204.316C54.6772 204.316 55.7529 203.24 55.7529 201.913V201.858C55.7529 200.531 54.6772 199.456 53.3506 199.456C52.024 199.456 50.9482 200.531 50.9482 201.858Z" fill="#590BB2"/>
<path d="M62.7231 201.858V201.913C62.7231 203.24 63.7989 204.316 65.1255 204.316C66.4521 204.316 67.5278 203.24 67.5278 201.913V201.858C67.5278 200.531 66.4521 199.456 65.1255 199.456C63.7989 199.456 62.7231 200.531 62.7231 201.858Z" fill="#590BB2"/>
<path d="M79.3027 201.913V201.858C79.3027 200.531 78.227 199.456 76.9004 199.456C75.5738 199.456 74.498 200.531 74.498 201.858V201.913C74.498 203.24 75.5738 204.316 76.9004 204.316C78.227 204.316 79.3027 203.24 79.3027 201.913Z" fill="#590BB2"/>
<path d="M91.0767 201.913V201.858C91.0767 200.531 90.0009 199.456 88.6743 199.456C87.3477 199.456 86.272 200.531 86.272 201.858V201.913C86.272 203.24 87.3477 204.316 88.6743 204.316C90.0009 204.316 91.0767 203.24 91.0767 201.913Z" fill="#590BB2"/>
<path d="M100.449 199.456C99.1226 199.456 98.0469 200.531 98.0469 201.858V201.913C98.0469 203.24 99.1226 204.316 100.449 204.316C101.776 204.316 102.852 203.24 102.852 201.913V201.858C102.852 200.531 101.776 199.456 100.449 199.456Z" fill="#590BB2"/>
<path d="M114.626 201.913V201.858C114.626 200.531 113.551 199.456 112.224 199.456C110.898 199.456 109.822 200.531 109.822 201.858V201.913C109.822 203.24 110.898 204.316 112.224 204.316C113.551 204.316 114.626 203.24 114.626 201.913Z" fill="#590BB2"/>
<path d="M126.401 201.913V201.858C126.401 200.531 125.326 199.456 123.999 199.456C122.672 199.456 121.596 200.531 121.596 201.858V201.913C121.596 203.24 122.672 204.316 123.999 204.316C125.326 204.316 126.401 203.24 126.401 201.913Z" fill="#590BB2"/>
<path d="M138.176 201.913V201.858C138.176 200.531 137.1 199.456 135.773 199.456C134.446 199.456 133.371 200.531 133.371 201.858V201.913C133.371 203.24 134.446 204.316 135.773 204.316C137.1 204.316 138.176 203.24 138.176 201.913Z" fill="#590BB2"/>
<path d="M149.951 201.913V201.858C149.951 200.531 148.875 199.456 147.548 199.456C146.221 199.456 145.146 200.531 145.146 201.858V201.913C145.146 203.24 146.221 204.316 147.548 204.316C148.875 204.316 149.951 203.24 149.951 201.913Z" fill="#590BB2"/>
<path d="M47.4634 208.729C46.1368 208.729 45.061 209.805 45.061 211.132V211.187C45.061 212.514 46.1368 213.589 47.4634 213.589C48.79 213.589 49.8657 212.514 49.8657 211.187V211.132C49.8657 209.805 48.79 208.729 47.4634 208.729Z" fill="#590BB2"/>
<path d="M59.2378 208.729C57.9112 208.729 56.8354 209.805 56.8354 211.132V211.187C56.8354 212.514 57.9112 213.589 59.2378 213.589C60.5644 213.589 61.6401 212.514 61.6401 211.187V211.132C61.6401 209.805 60.5648 208.729 59.2378 208.729Z" fill="#590BB2"/>
<path d="M68.6104 211.187C68.6104 212.514 69.6861 213.589 71.0127 213.589H118.111C119.438 213.589 120.513 212.514 120.513 211.187C120.513 209.86 119.438 208.785 118.111 208.785H71.0127C69.6861 208.785 68.6104 209.86 68.6104 211.187Z" fill="#590BB2"/>
<path d="M127.483 211.187C127.483 212.514 128.559 213.589 129.886 213.589C131.213 213.589 132.288 212.514 132.288 211.187V211.132C132.288 209.805 131.213 208.729 129.886 208.729C128.559 208.729 127.483 209.805 127.483 211.132V211.187Z" fill="#590BB2"/>
<path d="M139.258 211.187C139.258 212.514 140.334 213.589 141.661 213.589C142.988 213.589 144.063 212.514 144.063 211.187V211.132C144.063 209.805 142.988 208.729 141.661 208.729C140.334 208.729 139.258 209.805 139.258 211.132V211.187Z" fill="#590BB2"/>
<path d="M151.033 211.187C151.033 212.514 152.108 213.589 153.436 213.589C154.763 213.589 155.838 212.514 155.838 211.187V211.132C155.838 209.805 154.763 208.729 153.436 208.729C152.108 208.729 151.033 209.805 151.033 211.132V211.187Z" fill="#590BB2"/>
</g>
<defs>
<linearGradient id="paint0_linear" x1="99.3931" y1="123" x2="385.533" y2="123" gradientUnits="userSpaceOnUse">
<stop offset="0.000701121" stop-color="#FFF0D5"/>
<stop offset="0.5112" stop-color="#FFDFFF"/>
<stop offset="1" stop-color="#D9CEFF"/>
</linearGradient>
<clipPath id="clip0">
<rect width="246" height="246" fill="white"/>
</clipPath>
</defs>
</svg>
