<svg width="500" height="500" viewBox="0 0 500 500" fill="none" xmlns="http://www.w3.org/2000/svg">
<path d="M223 424C257.794 424 286 415.27 286 404.5C286 393.73 257.794 385 223 385C188.206 385 160 393.73 160 404.5C160 415.27 188.206 424 223 424Z" fill="#7A86DD"/>
<path opacity="0.5" d="M223 424C257.794 424 286 415.27 286 404.5C286 393.73 257.794 385 223 385C188.206 385 160 393.73 160 404.5C160 415.27 188.206 424 223 424Z" fill="white"/>
<path d="M344.56 321.19C344.56 321.19 349.24 317.49 350.43 315.12C351.43 313.12 352.19 310.25 351.14 308.12C350.912 307.604 350.577 307.141 350.158 306.763C349.738 306.386 349.243 306.101 348.706 305.928C348.168 305.755 347.6 305.698 347.039 305.761C346.478 305.823 345.936 306.003 345.45 306.29C342.57 308.09 342.26 314.2 343 317.13C343.06 317.37 344.51 321.23 344.56 321.19Z" fill="#FDA39B"/>
<path d="M301.31 352C301.5 352.18 304.84 354.6 304.86 354.54C304.88 354.48 306.72 348.88 306.41 346.24C306.15 344 305.19 341.24 303.13 339.99C302.655 339.686 302.121 339.487 301.563 339.404C301.004 339.321 300.435 339.358 299.892 339.511C299.349 339.664 298.845 339.93 298.412 340.292C297.979 340.653 297.627 341.103 297.38 341.61C296 344.65 299.08 349.92 301.31 352Z" fill="#FDA39B"/>
<path d="M399.32 326.78C399.32 326.78 382.2 344.46 382.32 366.17C382.44 387.88 399.69 405.42 399.69 405.42C399.69 405.42 416.82 387.74 416.69 366.03C416.56 344.32 399.32 326.78 399.32 326.78Z" fill="#FDA39B"/>
<path d="M374.91 379.18C375.133 378.933 375.34 378.673 375.53 378.4C376.77 376.51 377.84 373.76 377.04 371.5C376.876 370.959 376.599 370.458 376.227 370.032C375.855 369.605 375.397 369.262 374.883 369.026C374.368 368.79 373.81 368.665 373.244 368.661C372.678 368.656 372.118 368.772 371.6 369C369.27 370.1 368.13 373.82 367.89 376.87C366.96 376.66 366.12 376.5 365.4 376.38C365.1 375.69 364.79 374.99 364.47 374.29C364.15 373.59 363.9 372.84 363.6 372.11C363.19 371.02 362.83 369.88 362.45 368.75C363.81 368.14 367.75 366.3 369.22 364.67C370.69 363.04 372.22 360.44 371.76 358.09C371.677 357.532 371.476 356.998 371.172 356.523C370.867 356.048 370.466 355.643 369.993 355.334C369.521 355.025 368.989 354.819 368.432 354.731C367.874 354.642 367.305 354.673 366.76 354.82C363.51 355.82 361.6 361.6 361.53 364.63C361.53 364.73 361.58 365.37 361.65 366.13C361.33 365.01 360.99 363.89 360.7 362.75C359.86 359.5 359.11 356.16 358.35 352.82C358.19 352.12 358.02 351.43 357.86 350.73C359 350.23 363.29 348.27 364.86 346.56C366.43 344.85 367.86 342.33 367.4 339.98C367.317 339.422 367.116 338.888 366.812 338.413C366.507 337.938 366.106 337.533 365.633 337.224C365.161 336.915 364.629 336.709 364.072 336.621C363.514 336.532 362.945 336.563 362.4 336.71C359.15 337.71 357.24 343.49 357.17 346.52C357.17 346.63 357.23 347.39 357.31 348.25C356.87 346.44 356.41 344.64 355.89 342.87C355.023 339.829 353.954 336.849 352.69 333.95C353.1 333.77 358.18 331.58 359.89 329.68C361.4 328.01 362.89 325.45 362.42 323.1C362.337 322.542 362.136 322.008 361.832 321.533C361.527 321.058 361.126 320.653 360.653 320.344C360.181 320.035 359.649 319.829 359.092 319.741C358.534 319.652 357.965 319.683 357.42 319.83C354.17 320.83 352.26 326.61 352.19 329.64C352.19 329.85 352.44 332.64 352.56 333.64C352.556 333.607 352.556 333.573 352.56 333.54C351.25 330.72 349.691 328.022 347.9 325.48C346.31 323.204 344.59 321.02 342.75 318.94C341.06 317 339.4 315.32 337.92 313.85C337.11 313.06 336.35 312.35 335.64 311.7H335.71C335.77 311.7 334.13 307.92 334 307.7C332.48 305.08 328 300.91 324.69 301.63C324.141 301.762 323.626 302.008 323.179 302.354C322.733 302.699 322.364 303.134 322.097 303.632C321.831 304.13 321.673 304.679 321.634 305.242C321.595 305.805 321.675 306.37 321.87 306.9C322.62 309.18 325.13 310.71 327.27 311.45C329.41 312.19 334.27 311.84 335.44 311.74C336.16 312.43 336.93 313.18 337.76 314.03C339.21 315.53 340.83 317.23 342.47 319.21C342.91 319.73 343.36 320.31 343.8 320.87C342.86 320.09 341.54 319.03 341.4 318.95C338.85 317.32 332.95 315.68 330.34 317.85C329.911 318.221 329.565 318.679 329.326 319.194C329.088 319.709 328.961 320.269 328.956 320.836C328.95 321.404 329.065 321.966 329.294 322.486C329.522 323.005 329.858 323.47 330.28 323.85C331.98 325.53 334.93 325.73 337.16 325.4C339.39 325.07 343.67 322.45 344.58 321.87C345.58 323.12 346.51 324.42 347.44 325.87C349.152 328.417 350.634 331.111 351.87 333.92C351.94 334.08 351.99 334.26 352.06 334.43C351.66 333.96 349.28 331.55 349.06 331.43C346.7 329.54 341.06 327.26 338.19 329.13C337.727 329.452 337.337 329.868 337.045 330.351C336.754 330.834 336.569 331.374 336.501 331.934C336.433 332.494 336.484 333.062 336.651 333.601C336.818 334.139 337.097 334.637 337.47 335.06C338.98 336.91 341.88 337.44 344.14 337.35C346.75 337.26 351.88 334.67 352.07 334.57C353.223 337.404 354.192 340.311 354.97 343.27C355.55 345.46 356.06 347.7 356.54 349.95C356.01 349.36 353.79 347.12 353.61 346.95C351.25 345.05 345.61 342.78 342.74 344.64C342.277 344.962 341.887 345.378 341.595 345.861C341.304 346.344 341.119 346.884 341.051 347.444C340.983 348.004 341.034 348.572 341.201 349.111C341.368 349.649 341.647 350.147 342.02 350.57C343.53 352.43 346.43 352.95 348.69 352.87C351.24 352.78 356.17 350.32 356.58 350.11C356.8 351.11 357.02 352.11 357.23 353.18C357.93 356.53 358.61 359.9 359.38 363.18C359.65 364.32 359.95 365.43 360.25 366.56C359.42 365.69 357.88 364.14 357.73 364.02C355.37 362.12 349.73 359.85 346.86 361.71C346.397 362.032 346.007 362.448 345.715 362.931C345.424 363.414 345.239 363.954 345.171 364.514C345.103 365.074 345.154 365.642 345.321 366.181C345.488 366.719 345.767 367.217 346.14 367.64C347.65 369.5 350.55 370.02 352.81 369.94C355.07 369.86 359.27 367.88 360.45 367.3C360.96 369.16 361.51 371 362.14 372.78C362.43 373.54 362.67 374.33 362.99 375.05L363.47 376.19L362.82 376.12C362.82 376.12 362.77 377.18 362.87 378.91C360.38 377.13 356.79 375.6 354.45 376.68C353.944 376.928 353.495 377.28 353.135 377.713C352.774 378.147 352.509 378.651 352.357 379.194C352.205 379.737 352.169 380.306 352.252 380.864C352.336 381.421 352.536 381.955 352.84 382.43C352.992 382.685 353.166 382.926 353.36 383.15C353.801 385.776 354.91 388.245 356.58 390.32C356.71 390.47 358.4 392.03 359.28 392.81C358.43 392.35 357.58 391.89 356.7 391.39C355.43 390.69 354.11 389.9 352.82 389.15L350.82 387.89C350.14 387.47 349.54 387 348.89 386.55C347.95 385.87 347.01 385.12 346.07 384.38C346.87 383.13 349.14 379.38 349.47 377.25C349.8 375.12 349.62 372.07 347.95 370.35C347.575 369.924 347.113 369.584 346.596 369.35C346.079 369.117 345.518 368.996 344.95 368.996C344.383 368.996 343.822 369.117 343.304 369.35C342.787 369.584 342.325 369.924 341.95 370.35C339.77 372.95 341.38 378.85 343 381.42C343.05 381.5 343.45 382.01 343.92 382.6C343.03 381.85 342.14 381.1 341.26 380.31C338.77 378.06 336.26 375.69 333.82 373.31L332.26 371.84C332.94 370.84 335.43 366.84 335.78 364.52C336.13 362.2 335.93 359.34 334.26 357.63C333.885 357.204 333.423 356.864 332.906 356.63C332.389 356.397 331.828 356.276 331.26 356.276C330.693 356.276 330.132 356.397 329.614 356.63C329.097 356.864 328.635 357.204 328.26 357.63C326.08 360.23 327.69 366.13 329.26 368.69C329.32 368.78 329.8 369.39 330.34 370.06C328.97 368.79 327.59 367.55 326.18 366.36C323.783 364.295 321.247 362.397 318.59 360.68C318.84 360.31 321.86 355.68 322.24 353.15C322.58 350.92 322.39 347.97 320.72 346.26C320.345 345.834 319.883 345.494 319.366 345.26C318.849 345.027 318.288 344.906 317.72 344.906C317.153 344.906 316.592 345.027 316.074 345.26C315.557 345.494 315.095 345.834 314.72 346.26C312.54 348.86 314.15 354.76 315.77 357.32C315.88 357.5 317.62 359.67 318.26 360.43L318.17 360.36C315.522 358.736 312.734 357.351 309.84 356.22C307.26 355.192 304.623 354.318 301.94 353.6C299.46 352.91 297.15 352.43 295.1 352.02C293.99 351.81 292.97 351.64 292.02 351.49L292.07 351.44C292.12 351.44 288.66 349.16 288.43 349.04C285.72 347.69 279.68 346.69 277.32 349.11C276.935 349.523 276.643 350.013 276.461 350.547C276.279 351.082 276.212 351.649 276.265 352.211C276.318 352.773 276.489 353.317 276.768 353.808C277.046 354.299 277.425 354.726 277.88 355.06C279.75 356.55 282.7 356.44 284.88 355.88C287.06 355.32 290.88 352.36 291.88 351.61C292.88 351.79 293.88 351.99 295.08 352.24C297.08 352.69 299.41 353.24 301.86 353.96C302.52 354.16 303.21 354.4 303.86 354.62C302.64 354.48 300.96 354.33 300.8 354.33C297.8 354.39 291.95 356.27 290.97 359.52C290.823 360.063 290.791 360.63 290.878 361.185C290.965 361.741 291.168 362.272 291.473 362.744C291.779 363.215 292.181 363.617 292.652 363.924C293.124 364.23 293.655 364.433 294.21 364.52C296.56 364.97 299.12 363.52 300.81 362.01C302.5 360.5 304.61 355.96 305.04 355.01C306.54 355.51 308.04 356.07 309.62 356.74C312.454 357.921 315.178 359.35 317.76 361.01L318.19 361.33C317.6 361.16 314.29 360.46 314.05 360.44C311.05 360.16 305.05 361.44 303.71 364.52C303.502 365.044 303.406 365.606 303.43 366.169C303.454 366.732 303.597 367.284 303.849 367.788C304.101 368.292 304.457 368.738 304.893 369.095C305.329 369.452 305.836 369.713 306.38 369.86C308.66 370.58 311.38 369.41 313.21 368.09C315.33 366.58 318.21 361.59 318.29 361.4C320.818 363.126 323.23 365.017 325.51 367.06C327.2 368.56 328.86 370.15 330.51 371.76C329.73 371.56 326.65 370.92 326.42 370.9C323.42 370.62 317.42 371.85 316.08 374.97C315.872 375.494 315.776 376.056 315.8 376.619C315.824 377.182 315.967 377.734 316.219 378.238C316.471 378.742 316.827 379.188 317.263 379.545C317.699 379.902 318.206 380.163 318.75 380.31C321.04 381.03 323.75 379.86 325.59 378.55C327.66 377.07 330.41 372.3 330.64 371.89L332.88 374.1C335.31 376.51 337.73 378.94 340.19 381.27C341.05 382.07 341.92 382.84 342.79 383.6C341.62 383.34 339.48 382.89 339.29 382.88C336.29 382.6 330.29 383.83 328.95 386.95C328.74 387.474 328.643 388.037 328.666 388.602C328.689 389.166 328.832 389.719 329.084 390.224C329.336 390.73 329.693 391.176 330.13 391.534C330.567 391.892 331.075 392.153 331.62 392.3C333.9 393.01 336.62 391.84 338.45 390.53C340.28 389.22 342.7 385.25 343.36 384.12C344.82 385.39 346.29 386.61 347.8 387.75C348.46 388.23 349.1 388.75 349.8 389.18L351.75 390.48C353.11 391.32 354.37 392.11 355.66 392.86L357.56 393.96C356.41 393.51 354.56 392.83 354.41 392.79C351.47 392.05 345.36 392.37 343.57 395.25C343.285 395.736 343.106 396.277 343.045 396.837C342.983 397.397 343.041 397.963 343.214 398.5C343.386 399.036 343.67 399.53 344.047 399.948C344.424 400.367 344.885 400.702 345.4 400.93C347.55 401.99 350.4 401.24 352.4 400.22C354.63 399.1 357.98 394.95 358.4 394.44C359.96 395.33 361.48 396.18 362.92 396.95C366.76 399 370.12 400.64 372.72 401.87C381.18 409.18 393.08 409.98 393.08 409.98C393.08 409.98 393.71 395.73 385.32 386.34C382.409 383.228 378.857 380.785 374.91 379.18ZM359.81 393.08C360.07 392.5 362.1 387.97 362.24 385.41C362.71 385.33 363.18 385.23 363.64 385.12C364.5 389.623 366.287 393.897 368.89 397.67C367.35 396.937 365.683 396.123 363.89 395.23C362.6 394.57 361.22 393.84 359.81 393.08Z" fill="#FDA39B"/>
<path d="M437.29 376.45C437.29 376.45 423.02 376.89 414.29 385.96C405.56 395.03 405.67 409.3 405.67 409.3C405.67 409.3 419.93 408.86 428.67 399.79C437.41 390.72 437.29 376.45 437.29 376.45Z" fill="#FDA39B"/>
<g opacity="0.5">
<path opacity="0.5" d="M344.56 321.19C344.56 321.19 349.24 317.49 350.43 315.12C351.43 313.12 352.19 310.25 351.14 308.12C350.912 307.604 350.577 307.141 350.158 306.763C349.738 306.386 349.243 306.101 348.706 305.928C348.168 305.755 347.6 305.698 347.039 305.761C346.478 305.823 345.936 306.003 345.45 306.29C342.57 308.09 342.26 314.2 343 317.13C343.06 317.37 344.51 321.23 344.56 321.19Z" fill="white"/>
<path opacity="0.5" d="M301.31 352C301.5 352.18 304.84 354.6 304.86 354.54C304.88 354.48 306.72 348.88 306.41 346.24C306.15 344 305.19 341.24 303.13 339.99C302.655 339.686 302.121 339.487 301.563 339.404C301.004 339.321 300.435 339.358 299.892 339.511C299.349 339.664 298.845 339.93 298.412 340.292C297.979 340.653 297.627 341.103 297.38 341.61C296 344.65 299.08 349.92 301.31 352Z" fill="white"/>
<path opacity="0.5" d="M399.32 326.78C399.32 326.78 382.2 344.46 382.32 366.17C382.44 387.88 399.69 405.42 399.69 405.42C399.69 405.42 416.82 387.74 416.69 366.03C416.56 344.32 399.32 326.78 399.32 326.78Z" fill="white"/>
<path opacity="0.5" d="M374.91 379.18C375.133 378.933 375.34 378.673 375.53 378.4C376.77 376.51 377.84 373.76 377.04 371.5C376.876 370.959 376.599 370.458 376.227 370.032C375.855 369.605 375.397 369.262 374.883 369.026C374.368 368.79 373.81 368.665 373.244 368.661C372.678 368.656 372.118 368.772 371.6 369C369.27 370.1 368.13 373.82 367.89 376.87C366.96 376.66 366.12 376.5 365.4 376.38C365.1 375.69 364.79 374.99 364.47 374.29C364.15 373.59 363.9 372.84 363.6 372.11C363.19 371.02 362.83 369.88 362.45 368.75C363.81 368.14 367.75 366.3 369.22 364.67C370.69 363.04 372.22 360.44 371.76 358.09C371.677 357.532 371.476 356.998 371.172 356.523C370.867 356.048 370.466 355.643 369.993 355.334C369.521 355.025 368.989 354.819 368.432 354.731C367.874 354.642 367.305 354.673 366.76 354.82C363.51 355.82 361.6 361.6 361.53 364.63C361.53 364.73 361.58 365.37 361.65 366.13C361.33 365.01 360.99 363.89 360.7 362.75C359.86 359.5 359.11 356.16 358.35 352.82C358.19 352.12 358.02 351.43 357.86 350.73C359 350.23 363.29 348.27 364.86 346.56C366.43 344.85 367.86 342.33 367.4 339.98C367.317 339.422 367.116 338.888 366.812 338.413C366.507 337.938 366.106 337.533 365.633 337.224C365.161 336.915 364.629 336.709 364.072 336.621C363.514 336.532 362.945 336.563 362.4 336.71C359.15 337.71 357.24 343.49 357.17 346.52C357.17 346.63 357.23 347.39 357.31 348.25C356.87 346.44 356.41 344.64 355.89 342.87C355.023 339.829 353.954 336.849 352.69 333.95C353.1 333.77 358.18 331.58 359.89 329.68C361.4 328.01 362.89 325.45 362.42 323.1C362.337 322.542 362.136 322.008 361.832 321.533C361.527 321.058 361.126 320.653 360.653 320.344C360.181 320.035 359.649 319.829 359.092 319.741C358.534 319.652 357.965 319.683 357.42 319.83C354.17 320.83 352.26 326.61 352.19 329.64C352.19 329.85 352.44 332.64 352.56 333.64C352.556 333.607 352.556 333.573 352.56 333.54C351.25 330.72 349.691 328.022 347.9 325.48C346.31 323.204 344.59 321.02 342.75 318.94C341.06 317 339.4 315.32 337.92 313.85C337.11 313.06 336.35 312.35 335.64 311.7H335.71C335.77 311.7 334.13 307.92 334 307.7C332.48 305.08 328 300.91 324.69 301.63C324.141 301.762 323.626 302.008 323.179 302.354C322.733 302.699 322.364 303.134 322.097 303.632C321.831 304.13 321.673 304.679 321.634 305.242C321.595 305.805 321.675 306.37 321.87 306.9C322.62 309.18 325.13 310.71 327.27 311.45C329.41 312.19 334.27 311.84 335.44 311.74C336.16 312.43 336.93 313.18 337.76 314.03C339.21 315.53 340.83 317.23 342.47 319.21C342.91 319.73 343.36 320.31 343.8 320.87C342.86 320.09 341.54 319.03 341.4 318.95C338.85 317.32 332.95 315.68 330.34 317.85C329.911 318.221 329.565 318.679 329.326 319.194C329.088 319.709 328.961 320.269 328.956 320.836C328.95 321.404 329.065 321.966 329.294 322.486C329.522 323.005 329.858 323.47 330.28 323.85C331.98 325.53 334.93 325.73 337.16 325.4C339.39 325.07 343.67 322.45 344.58 321.87C345.58 323.12 346.51 324.42 347.44 325.87C349.152 328.417 350.634 331.111 351.87 333.92C351.94 334.08 351.99 334.26 352.06 334.43C351.66 333.96 349.28 331.55 349.06 331.43C346.7 329.54 341.06 327.26 338.19 329.13C337.727 329.452 337.337 329.868 337.045 330.351C336.754 330.834 336.569 331.374 336.501 331.934C336.433 332.494 336.484 333.062 336.651 333.601C336.818 334.139 337.097 334.637 337.47 335.06C338.98 336.91 341.88 337.44 344.14 337.35C346.75 337.26 351.88 334.67 352.07 334.57C353.223 337.404 354.192 340.311 354.97 343.27C355.55 345.46 356.06 347.7 356.54 349.95C356.01 349.36 353.79 347.12 353.61 346.95C351.25 345.05 345.61 342.78 342.74 344.64C342.277 344.962 341.887 345.378 341.595 345.861C341.304 346.344 341.119 346.884 341.051 347.444C340.983 348.004 341.034 348.572 341.201 349.111C341.368 349.649 341.647 350.147 342.02 350.57C343.53 352.43 346.43 352.95 348.69 352.87C351.24 352.78 356.17 350.32 356.58 350.11C356.8 351.11 357.02 352.11 357.23 353.18C357.93 356.53 358.61 359.9 359.38 363.18C359.65 364.32 359.95 365.43 360.25 366.56C359.42 365.69 357.88 364.14 357.73 364.02C355.37 362.12 349.73 359.85 346.86 361.71C346.397 362.032 346.007 362.448 345.715 362.931C345.424 363.414 345.239 363.954 345.171 364.514C345.103 365.074 345.154 365.642 345.321 366.181C345.488 366.719 345.767 367.217 346.14 367.64C347.65 369.5 350.55 370.02 352.81 369.94C355.07 369.86 359.27 367.88 360.45 367.3C360.96 369.16 361.51 371 362.14 372.78C362.43 373.54 362.67 374.33 362.99 375.05L363.47 376.19L362.82 376.12C362.82 376.12 362.77 377.18 362.87 378.91C360.38 377.13 356.79 375.6 354.45 376.68C353.944 376.928 353.495 377.28 353.135 377.713C352.774 378.147 352.509 378.651 352.357 379.194C352.205 379.737 352.169 380.306 352.252 380.864C352.336 381.421 352.536 381.955 352.84 382.43C352.992 382.685 353.166 382.926 353.36 383.15C353.801 385.776 354.91 388.245 356.58 390.32C356.71 390.47 358.4 392.03 359.28 392.81C358.43 392.35 357.58 391.89 356.7 391.39C355.43 390.69 354.11 389.9 352.82 389.15L350.82 387.89C350.14 387.47 349.54 387 348.89 386.55C347.95 385.87 347.01 385.12 346.07 384.38C346.87 383.13 349.14 379.38 349.47 377.25C349.8 375.12 349.62 372.07 347.95 370.35C347.575 369.924 347.113 369.584 346.596 369.35C346.079 369.117 345.518 368.996 344.95 368.996C344.383 368.996 343.822 369.117 343.304 369.35C342.787 369.584 342.325 369.924 341.95 370.35C339.77 372.95 341.38 378.85 343 381.42C343.05 381.5 343.45 382.01 343.92 382.6C343.03 381.85 342.14 381.1 341.26 380.31C338.77 378.06 336.26 375.69 333.82 373.31L332.26 371.84C332.94 370.84 335.43 366.84 335.78 364.52C336.13 362.2 335.93 359.34 334.26 357.63C333.885 357.204 333.423 356.864 332.906 356.63C332.389 356.397 331.828 356.276 331.26 356.276C330.693 356.276 330.132 356.397 329.614 356.63C329.097 356.864 328.635 357.204 328.26 357.63C326.08 360.23 327.69 366.13 329.26 368.69C329.32 368.78 329.8 369.39 330.34 370.06C328.97 368.79 327.59 367.55 326.18 366.36C323.783 364.295 321.247 362.397 318.59 360.68C318.84 360.31 321.86 355.68 322.24 353.15C322.58 350.92 322.39 347.97 320.72 346.26C320.345 345.834 319.883 345.494 319.366 345.26C318.849 345.027 318.288 344.906 317.72 344.906C317.153 344.906 316.592 345.027 316.074 345.26C315.557 345.494 315.095 345.834 314.72 346.26C312.54 348.86 314.15 354.76 315.77 357.32C315.88 357.5 317.62 359.67 318.26 360.43L318.17 360.36C315.522 358.736 312.734 357.351 309.84 356.22C307.26 355.192 304.623 354.318 301.94 353.6C299.46 352.91 297.15 352.43 295.1 352.02C293.99 351.81 292.97 351.64 292.02 351.49L292.07 351.44C292.12 351.44 288.66 349.16 288.43 349.04C285.72 347.69 279.68 346.69 277.32 349.11C276.935 349.523 276.643 350.013 276.461 350.547C276.279 351.082 276.212 351.649 276.265 352.211C276.318 352.773 276.489 353.317 276.768 353.808C277.046 354.299 277.425 354.726 277.88 355.06C279.75 356.55 282.7 356.44 284.88 355.88C287.06 355.32 290.88 352.36 291.88 351.61C292.88 351.79 293.88 351.99 295.08 352.24C297.08 352.69 299.41 353.24 301.86 353.96C302.52 354.16 303.21 354.4 303.86 354.62C302.64 354.48 300.96 354.33 300.8 354.33C297.8 354.39 291.95 356.27 290.97 359.52C290.823 360.063 290.791 360.63 290.878 361.185C290.965 361.741 291.168 362.272 291.473 362.744C291.779 363.215 292.181 363.617 292.652 363.924C293.124 364.23 293.655 364.433 294.21 364.52C296.56 364.97 299.12 363.52 300.81 362.01C302.5 360.5 304.61 355.96 305.04 355.01C306.54 355.51 308.04 356.07 309.62 356.74C312.454 357.921 315.178 359.35 317.76 361.01L318.19 361.33C317.6 361.16 314.29 360.46 314.05 360.44C311.05 360.16 305.05 361.44 303.71 364.52C303.502 365.044 303.406 365.606 303.43 366.169C303.454 366.732 303.597 367.284 303.849 367.788C304.101 368.292 304.457 368.738 304.893 369.095C305.329 369.452 305.836 369.713 306.38 369.86C308.66 370.58 311.38 369.41 313.21 368.09C315.33 366.58 318.21 361.59 318.29 361.4C320.818 363.126 323.23 365.017 325.51 367.06C327.2 368.56 328.86 370.15 330.51 371.76C329.73 371.56 326.65 370.92 326.42 370.9C323.42 370.62 317.42 371.85 316.08 374.97C315.872 375.494 315.776 376.056 315.8 376.619C315.824 377.182 315.967 377.734 316.219 378.238C316.471 378.742 316.827 379.188 317.263 379.545C317.699 379.902 318.206 380.163 318.75 380.31C321.04 381.03 323.75 379.86 325.59 378.55C327.66 377.07 330.41 372.3 330.64 371.89L332.88 374.1C335.31 376.51 337.73 378.94 340.19 381.27C341.05 382.07 341.92 382.84 342.79 383.6C341.62 383.34 339.48 382.89 339.29 382.88C336.29 382.6 330.29 383.83 328.95 386.95C328.74 387.474 328.643 388.037 328.666 388.602C328.689 389.166 328.832 389.719 329.084 390.224C329.336 390.73 329.693 391.176 330.13 391.534C330.567 391.892 331.075 392.153 331.62 392.3C333.9 393.01 336.62 391.84 338.45 390.53C340.28 389.22 342.7 385.25 343.36 384.12C344.82 385.39 346.29 386.61 347.8 387.75C348.46 388.23 349.1 388.75 349.8 389.18L351.75 390.48C353.11 391.32 354.37 392.11 355.66 392.86L357.56 393.96C356.41 393.51 354.56 392.83 354.41 392.79C351.47 392.05 345.36 392.37 343.57 395.25C343.285 395.736 343.106 396.277 343.045 396.837C342.983 397.397 343.041 397.963 343.214 398.5C343.386 399.036 343.67 399.53 344.047 399.948C344.424 400.367 344.885 400.702 345.4 400.93C347.55 401.99 350.4 401.24 352.4 400.22C354.63 399.1 357.98 394.95 358.4 394.44C359.96 395.33 361.48 396.18 362.92 396.95C366.76 399 370.12 400.64 372.72 401.87C381.18 409.18 393.08 409.98 393.08 409.98C393.08 409.98 393.71 395.73 385.32 386.34C382.409 383.228 378.857 380.785 374.91 379.18ZM359.81 393.08C360.07 392.5 362.1 387.97 362.24 385.41C362.71 385.33 363.18 385.23 363.64 385.12C364.5 389.623 366.287 393.897 368.89 397.67C367.35 396.937 365.683 396.123 363.89 395.23C362.6 394.57 361.22 393.84 359.81 393.08Z" fill="white"/>
<path opacity="0.5" d="M437.29 376.45C437.29 376.45 423.02 376.89 414.29 385.96C405.56 395.03 405.67 409.3 405.67 409.3C405.67 409.3 419.93 408.86 428.67 399.79C437.41 390.72 437.29 376.45 437.29 376.45Z" fill="white"/>
</g>
<path d="M400.03 385.64L414.04 373.04L413.44 372.38L400.02 384.44L399.95 367.93L400.02 367.98L411.87 350.65L411.13 350.15L399.94 366.5L399.77 326.78L398.88 326.79L398.99 353.75L390.07 346.03L389.48 346.71L399 354.94L399.08 374.22L385.56 362.25L384.96 362.93L399.08 375.42L399.16 392.97L389 385L388.44 385.71L399.17 394.12L399.21 405.42L400.11 405.41L400.03 385.64Z" fill="white"/>
<path d="M387.12 390.5L386.23 390.4L385.1 400.38L379.08 393.65H379.1L377.57 381.58L376.68 381.69L378.04 392.49L363.09 375.77L362.42 376.37L372.56 387.71L366.14 387.79L366.15 388.69L373.36 388.6L380.48 396.56L370.43 396.57V397.47L381.28 397.45L387.75 404.69L380.66 405.11L380.72 406.01L388.51 405.54L392.82 410.35L393.49 409.75L385.9 401.27L387.12 390.5Z" fill="white"/>
<path d="M420.98 394.06L432.9 391.64L432.72 390.76L422.06 392.92L437.61 376.76L436.96 376.14L426.41 387.11L425.85 380.7L424.96 380.78L425.58 387.96L418.18 395.65L417.42 385.63L416.52 385.7L417.35 396.52L410.62 403.51L409.67 396.48L408.77 396.6L409.82 404.33L405.34 408.99L405.99 409.61L413.88 401.41L424.71 401.83L424.75 400.93L414.72 400.55L420.97 394.05L420.98 394.06Z" fill="white"/>
<path d="M182.92 394.73C182.92 394.73 176.35 402.4 175.53 405.13C174.71 407.86 177.17 409.79 181.83 409.52C186.49 409.25 189.77 402.4 191.14 400.75C192.51 399.1 195.8 397.19 196.34 393.36C196.88 389.53 184.57 391.44 182.92 394.73Z" fill="white" stroke="#263238" stroke-linecap="round" stroke-linejoin="round"/>
<path d="M196.34 393.36C196.399 393.012 196.324 392.655 196.13 392.36C194.92 395.69 192.43 398.87 191.13 399.36C189.83 399.85 187.29 404.57 183.46 407.03C180.84 408.71 177.34 407.34 175.37 406.29C175.5 408.38 177.86 409.73 181.82 409.5C186.47 409.22 189.76 402.38 191.13 400.73C192.5 399.08 195.8 397.19 196.34 393.36Z" fill="#263238" stroke="#263238" stroke-linecap="round" stroke-linejoin="round"/>
<path d="M261.94 394.73C261.94 394.73 268.52 402.4 269.34 405.13C270.16 407.86 267.69 409.79 263.04 409.52C258.39 409.25 255.04 402.4 253.72 400.75C252.4 399.1 249.07 397.19 248.52 393.36C247.97 389.53 260.3 391.44 261.94 394.73Z" fill="white" stroke="#263238" stroke-linecap="round" stroke-linejoin="round"/>
<path d="M248.52 393.36C248.458 393.011 248.537 392.651 248.74 392.36C249.94 395.69 252.44 398.87 253.74 399.36C255.04 399.85 257.58 404.57 261.41 407.03C264.03 408.71 267.53 407.34 269.5 406.29C269.38 408.38 267.01 409.73 263.06 409.5C258.4 409.22 255.06 402.38 253.74 400.73C252.42 399.08 249.07 397.19 248.52 393.36Z" fill="#263238" stroke="#263238" stroke-linecap="round" stroke-linejoin="round"/>
<path d="M208.45 255.94C208.45 255.94 205.11 278.32 204.83 279.14C204.55 279.96 194.7 329.81 192.78 339.94C190.86 350.07 188.13 360.21 187.85 366.24C187.57 372.27 185.66 387.6 185.66 387.6C184.809 388.861 184.161 390.248 183.74 391.71C183.565 392.734 183.29 393.739 182.92 394.71C184.808 395.21 186.73 395.574 188.67 395.8C191.41 396.08 194.43 394.71 195.52 394.71C196.61 394.71 198.81 386.49 199.63 382.93C200.45 379.37 204.56 362.39 205.38 359.37C206.2 356.35 216.61 315.55 216.61 315.55L226.01 290.81L230.12 289.17L236.33 335.82L246.47 389L248.66 396.67C250.602 397.27 252.628 397.551 254.66 397.5C257.13 397.22 261.79 394.5 261.79 394.5C261.79 394.5 262.33 390.94 261.51 389.85C260.69 388.76 258.77 385.74 258.77 385.74C258.77 385.74 257.13 350.95 255.77 343.01C254.41 335.07 252.77 325.2 252.77 325.2C252.77 325.2 250.58 290.42 250.58 281.93C250.58 273.44 246.7 256.24 246.7 256.24C246.7 256.24 226.86 261 208.45 255.94Z" fill="#263238" stroke="#263238" stroke-linecap="round" stroke-linejoin="round"/>
<path d="M223.73 260.24L224.01 265.72C224.01 265.72 230.01 266.81 233.32 264.9V259.69L223.73 260.24Z" fill="white" stroke="#263238" stroke-linecap="round" stroke-linejoin="round"/>
<path d="M227.88 269.9L227.54 287.24" stroke="white" stroke-width="0.75" stroke-linecap="round" stroke-linejoin="round"/>
<path d="M228.22 278.06L230.26 276.36L230.6 268.88" stroke="white" stroke-width="0.75" stroke-linecap="round" stroke-linejoin="round"/>
<path d="M211.9 262.42C211.9 262.42 213.6 267.86 211.22 269.9C209.918 271.06 208.422 271.981 206.8 272.62" stroke="white" stroke-width="0.75" stroke-linecap="round" stroke-linejoin="round"/>
<path d="M241.82 262.08C241.82 262.08 243.52 267.52 248.28 268.2" stroke="white" stroke-width="0.75" stroke-linecap="round" stroke-linejoin="round"/>
<path d="M215 196.19C215 196.19 199 193.19 197 192.69C195 192.19 176.5 176.69 176.5 176.69L163.72 144.52L157.04 146.32C157.04 146.32 158.25 165.94 159.04 171.44C159.83 176.94 164.04 187.69 164.54 188.69C165.04 189.69 167.54 192.69 168.54 192.94C169.54 193.19 181.29 201.94 184.04 203.44C186.79 204.94 197.79 211.44 197.79 211.44C197.79 211.44 203.29 225.44 204.04 228.19C204.79 230.94 208.29 248.69 208.54 250.69C208.79 252.69 207.54 254.19 208.54 255.94C209.54 257.69 216.79 262.69 226.79 262.69C236.79 262.69 245.79 259.19 246.79 256.19C247.79 253.19 246.29 243.94 246.29 243.19C246.29 242.44 247.29 231.44 247.29 231.44C247.29 231.44 252.54 242.19 254.79 245.69C257.04 249.19 260.54 253.94 263.04 253.94C265.54 253.94 297.29 234.44 297.29 234.44L295.79 228.19C291.164 230.291 286.293 231.803 281.29 232.69C274.29 233.69 264.79 236.19 264.79 236.19C264.79 236.19 255.54 215.94 254.54 212.19C253.54 208.44 252.04 201.69 250.79 200.44C249.54 199.19 232.54 196.69 230.29 196.69C228.04 196.69 215 196.19 215 196.19Z" fill="white"/>
<path d="M246.7 256.19C247.7 253.19 246.2 243.94 246.2 243.19C246.2 242.68 246.66 237.45 246.96 234.14L246.82 235.14C246.82 235.14 244.56 245.33 244.56 249.48C244.56 253.63 244.93 258.54 238.14 260.05C231.35 261.56 225.69 254.76 219.65 249.48C213.61 244.2 210.22 238.16 209.47 234.39C208.72 230.62 217.39 239.67 217.39 239.67C217.39 239.67 209.09 227.98 206.45 221.56C203.81 215.14 199.28 200.43 199.28 200.43L199.66 211.75L194.38 204.21C194.38 204.21 192.87 200.43 191.38 197.04C189.89 193.65 187.98 200.43 187.98 200.43C187.98 200.43 178.93 184.21 176.29 181.94C173.65 179.67 177.79 195.15 177.79 195.15C173.718 191.96 169.816 188.559 166.1 184.96C164.104 182.973 162.303 180.799 160.72 178.47C162.22 183.26 164.14 188.06 164.47 188.71C164.97 189.71 167.47 192.71 168.47 192.96C169.47 193.21 181.22 201.96 183.97 203.46C186.72 204.96 197.72 211.46 197.72 211.46C197.72 211.46 203.22 225.46 203.97 228.21C204.72 230.96 208.22 248.71 208.47 250.71C208.72 252.71 207.47 254.21 208.47 255.96C209.47 257.71 216.72 262.71 226.72 262.71C236.72 262.71 245.7 259.19 246.7 256.19Z" fill="#7A86DD"/>
<path d="M264.18 248C261.18 247.25 251.73 233.29 251.73 231.78C251.73 230.27 252.86 223.1 252.86 223.1L249.46 226.87L250.22 220.08L248.71 221.59L247.3 231.7C248.04 233.2 252.63 242.52 254.7 245.7C256.95 249.2 260.45 253.95 262.95 253.95C264.52 253.95 277.7 246.22 287.24 240.49C278.26 243.94 266.05 248.42 264.18 248Z" fill="#7A86DD"/>
<g opacity="0.5">
<path opacity="0.5" d="M246.7 256.19C247.7 253.19 246.2 243.94 246.2 243.19C246.2 242.68 246.66 237.45 246.96 234.14L246.82 235.14C246.82 235.14 244.56 245.33 244.56 249.48C244.56 253.63 244.93 258.54 238.14 260.05C231.35 261.56 225.69 254.76 219.65 249.48C213.61 244.2 210.22 238.16 209.47 234.39C208.72 230.62 217.39 239.67 217.39 239.67C217.39 239.67 209.09 227.98 206.45 221.56C203.81 215.14 199.28 200.43 199.28 200.43L199.66 211.75L194.38 204.21C194.38 204.21 192.87 200.43 191.38 197.04C189.89 193.65 187.98 200.43 187.98 200.43C187.98 200.43 178.93 184.21 176.29 181.94C173.65 179.67 177.79 195.15 177.79 195.15C173.718 191.96 169.816 188.559 166.1 184.96C164.104 182.973 162.303 180.799 160.72 178.47C162.22 183.26 164.14 188.06 164.47 188.71C164.97 189.71 167.47 192.71 168.47 192.96C169.47 193.21 181.22 201.96 183.97 203.46C186.72 204.96 197.72 211.46 197.72 211.46C197.72 211.46 203.22 225.46 203.97 228.21C204.72 230.96 208.22 248.71 208.47 250.71C208.72 252.71 207.47 254.21 208.47 255.96C209.47 257.71 216.72 262.71 226.72 262.71C236.72 262.71 245.7 259.19 246.7 256.19Z" fill="white"/>
<path opacity="0.5" d="M264.18 248C261.18 247.25 251.73 233.29 251.73 231.78C251.73 230.27 252.86 223.1 252.86 223.1L249.46 226.87L250.22 220.08L248.71 221.59L247.3 231.7C248.04 233.2 252.63 242.52 254.7 245.7C256.95 249.2 260.45 253.95 262.95 253.95C264.52 253.95 277.7 246.22 287.24 240.49C278.26 243.94 266.05 248.42 264.18 248Z" fill="white"/>
</g>
<path d="M215 196.19C215 196.19 199 193.19 197 192.69C195 192.19 176.5 176.69 176.5 176.69L163.72 144.52L157.04 146.32C157.04 146.32 158.25 165.94 159.04 171.44C159.83 176.94 164.04 187.69 164.54 188.69C165.04 189.69 167.54 192.69 168.54 192.94C169.54 193.19 181.29 201.94 184.04 203.44C186.79 204.94 197.79 211.44 197.79 211.44C197.79 211.44 203.29 225.44 204.04 228.19C204.79 230.94 208.29 248.69 208.54 250.69C208.79 252.69 207.54 254.19 208.54 255.94C209.54 257.69 216.79 262.69 226.79 262.69C236.79 262.69 245.79 259.19 246.79 256.19C247.79 253.19 246.29 243.94 246.29 243.19C246.29 242.44 247.29 231.44 247.29 231.44C247.29 231.44 252.54 242.19 254.79 245.69C257.04 249.19 260.54 253.94 263.04 253.94C265.54 253.94 297.29 234.44 297.29 234.44L295.79 228.19C291.164 230.291 286.293 231.803 281.29 232.69C274.29 233.69 264.79 236.19 264.79 236.19C264.79 236.19 255.54 215.94 254.54 212.19C253.54 208.44 252.04 201.69 250.79 200.44C249.54 199.19 232.54 196.69 230.29 196.69C228.04 196.69 215 196.19 215 196.19Z" stroke="#263238" stroke-linecap="round" stroke-linejoin="round"/>
<path d="M291.47 230.37L293.85 236.42" stroke="#263238" stroke-linecap="round" stroke-linejoin="round"/>
<path d="M157.28 150.86L165.12 148.69" stroke="#263238" stroke-linecap="round" stroke-linejoin="round"/>
<path d="M212 237.69C212 237.69 225.5 253.19 239.5 256.69" stroke="#263238" stroke-linecap="round" stroke-linejoin="round"/>
<path d="M249.76 214.61L250.2 211.69" stroke="#263238" stroke-linecap="round" stroke-linejoin="round"/>
<path d="M247.2 231.44L249.33 217.43" stroke="#263238" stroke-linecap="round" stroke-linejoin="round"/>
<path d="M247.45 229.19L252.45 218.19" stroke="#263238" stroke-linecap="round" stroke-linejoin="round"/>
<path d="M194.15 194.57L193.7 192.44" stroke="#263238" stroke-linecap="round" stroke-linejoin="round"/>
<path d="M197.7 211.44L194.76 197.48" stroke="#263238" stroke-linecap="round" stroke-linejoin="round"/>
<path d="M188.08 190.39L186.7 187.44" stroke="#263238" stroke-linecap="round" stroke-linejoin="round"/>
<path d="M197.2 209.94L189.21 192.81" stroke="#263238" stroke-linecap="round" stroke-linejoin="round"/>
<path d="M176 177.94C176 177.94 178.5 187.94 181.75 192.94" stroke="#263238" stroke-linecap="round" stroke-linejoin="round"/>
<path d="M268.2 242.94L264.7 236.19L271.45 241.69" stroke="#263238" stroke-linecap="round" stroke-linejoin="round"/>
<path d="M220.2 206.19L224.95 213.69L224.2 255.94L229.2 263.44L233.45 252.69L226.45 212.94L229.45 206.94L225.45 200.19L220.2 206.19Z" fill="#263238" stroke="#263238" stroke-linecap="round" stroke-linejoin="round"/>
<path d="M218.82 191.8C218.82 191.8 215.65 191.63 214.66 192.96C213.957 194.132 213.501 195.435 213.32 196.79C213.32 196.79 214.82 202.11 215.16 204.11C215.5 206.11 216.65 211.11 216.65 211.11L225.31 204.95L235.13 210.61C235.13 210.61 233.3 199.79 232.63 196.3C231.96 192.81 230.3 191.97 227.47 191.64C224.586 191.488 221.696 191.542 218.82 191.8Z" fill="white" stroke="#263238" stroke-linecap="round" stroke-linejoin="round"/>
<path d="M215.32 184.64C215.32 184.64 217.15 193.46 217.82 195.12C218.49 196.78 224.14 204.94 225.31 204.94C226.48 204.94 230.14 195.94 230.31 194.46C230.48 192.98 230.48 189.46 230.48 189.46C230.48 189.46 224.82 190.96 222.16 189.13C219.5 187.3 217.16 182.81 216.16 182.81C215.16 182.81 215.32 184.64 215.32 184.64Z" fill="white"/>
<path d="M222.15 189.13C219.48 187.3 217.15 182.81 216.15 182.81C215.15 182.81 215.32 184.64 215.32 184.64C215.32 184.64 216.32 189.32 217.08 192.51C218.941 194.276 221.282 195.452 223.81 195.89C226.108 196.065 228.399 195.478 230.33 194.22C230.47 192.62 230.47 189.46 230.47 189.46C230.47 189.46 224.81 191 222.15 189.13Z" fill="#7A86DD"/>
<path opacity="0.5" d="M222.15 189.13C219.48 187.3 217.15 182.81 216.15 182.81C215.15 182.81 215.32 184.64 215.32 184.64C215.32 184.64 216.32 189.32 217.08 192.51C218.941 194.276 221.282 195.452 223.81 195.89C226.108 196.065 228.399 195.478 230.33 194.22C230.47 192.62 230.47 189.46 230.47 189.46C230.47 189.46 224.81 191 222.15 189.13Z" fill="white"/>
<path d="M215.32 184.64C215.32 184.64 217.15 193.46 217.82 195.12C218.49 196.78 224.14 204.94 225.31 204.94C226.48 204.94 230.14 195.94 230.31 194.46C230.48 192.98 230.48 189.46 230.48 189.46C230.48 189.46 224.82 190.96 222.16 189.13C219.5 187.3 217.16 182.81 216.16 182.81C215.16 182.81 215.32 184.64 215.32 184.64Z" stroke="#263238" stroke-linecap="round" stroke-linejoin="round"/>
<path d="M235.13 164.83C235.13 164.83 235.63 172.99 236.13 176.65C236.63 180.31 236.79 184.65 234.96 187.47C233.13 190.29 231.3 192.13 227.47 192.63C223.64 193.13 218.82 190.8 217.32 188.47C215.82 186.14 214.49 183.81 214.49 183.81C213.386 183.775 212.305 183.488 211.33 182.97C209.83 182.14 208.5 178.31 209 176.81C209.5 175.31 212 175.15 212 175.15C212 175.15 210.84 169.99 210.17 166.49C209.824 164.665 210.181 162.776 211.17 161.204C212.158 159.631 213.705 158.49 215.5 158.01C219.66 156.67 225.82 156.84 228.98 158.51C232.14 160.18 234.3 162 235.13 164.83Z" fill="white"/>
<path d="M221.92 165.32C224.25 166.99 228.36 171.89 235.54 170.66C235.3 167.66 235.13 164.83 235.13 164.83C234.3 162 232.13 160.17 228.97 158.5C225.81 156.83 219.65 156.67 215.49 158.01C214.472 158.303 213.525 158.804 212.709 159.48C211.894 160.156 211.227 160.994 210.75 161.94L213.49 164.16C213.49 164.16 219.28 163.44 221.92 165.32Z" fill="#7A86DD"/>
<path opacity="0.5" d="M221.92 165.32C224.25 166.99 228.36 171.89 235.54 170.66C235.3 167.66 235.13 164.83 235.13 164.83C234.3 162 232.13 160.17 228.97 158.5C225.81 156.83 219.65 156.67 215.49 158.01C214.472 158.303 213.525 158.804 212.709 159.48C211.894 160.156 211.227 160.994 210.75 161.94L213.49 164.16C213.49 164.16 219.28 163.44 221.92 165.32Z" fill="white"/>
<path d="M235.13 164.83C235.13 164.83 235.63 172.99 236.13 176.65C236.63 180.31 236.79 184.65 234.96 187.47C233.13 190.29 231.3 192.13 227.47 192.63C223.64 193.13 218.82 190.8 217.32 188.47C215.82 186.14 214.49 183.81 214.49 183.81C213.386 183.775 212.305 183.488 211.33 182.97C209.83 182.14 208.5 178.31 209 176.81C209.5 175.31 212 175.15 212 175.15C212 175.15 210.84 169.99 210.17 166.49C209.824 164.665 210.181 162.776 211.17 161.204C212.158 159.631 213.705 158.49 215.5 158.01C219.66 156.67 225.82 156.84 228.98 158.51C232.14 160.18 234.3 162 235.13 164.83Z" stroke="#263238" stroke-linecap="round" stroke-linejoin="round"/>
<path d="M211 173.15L213.33 180.31C213.637 180.361 213.952 180.307 214.224 180.156C214.496 180.005 214.71 179.767 214.83 179.48C215.17 178.48 213 174.32 213.33 173.82C213.66 173.32 216 172.49 215.66 170.66C215.32 168.83 213.5 165.83 213.5 164.16C213.5 162.49 216.83 161.16 218.66 161.16C220.49 161.16 223.15 163.16 225.32 164.99C227.49 166.82 227.15 163.65 227.15 163.65C227.15 163.65 233.64 166.98 237.3 165.99C240.96 165 237.14 158.99 237.14 158.99C237.14 158.99 241.46 155.83 239.63 152.5C237.8 149.17 228.15 147.5 220.33 149.17C212.51 150.84 209.66 153.68 209 155C208.587 155.839 208.303 156.736 208.16 157.66C205.938 158.96 204.278 161.037 203.5 163.49C202.5 167.32 206.5 170.49 208.16 170.98C209.299 171.409 210.286 172.164 211 173.15Z" fill="#263238" stroke="#263238" stroke-linecap="round" stroke-linejoin="round"/>
<path d="M230.94 156.16C227.25 154.67 222.17 153.23 218.64 154.57C212.47 156.93 213.94 160.16 213.94 160.16C213.94 160.16 222.41 156 227.14 163.66" stroke="white" stroke-width="0.75" stroke-linecap="round" stroke-linejoin="round"/>
<path d="M235.69 158.39C235.69 158.39 234.88 157.94 233.58 157.32" stroke="white" stroke-width="0.75" stroke-linecap="round" stroke-linejoin="round"/>
<path d="M295.7 228.19C295.7 228.19 296.95 223.19 297.95 221.94C298.95 220.69 301.2 219.94 301.95 218.44C302.7 216.94 303.7 214.94 304.45 215.94C304.807 216.333 305.041 216.822 305.123 217.346C305.204 217.87 305.13 218.407 304.91 218.89C304.487 219.9 303.88 220.822 303.12 221.61C302.657 222.09 302.314 222.672 302.12 223.31C302.116 223.521 302.058 223.728 301.95 223.91L316.84 218.12C317.06 218.223 317.253 218.377 317.401 218.571C317.549 218.764 317.648 218.99 317.69 219.23C317.86 220.08 316.76 220.59 316.25 220.76C315.74 220.93 309.53 223.76 309.53 223.76L310.21 224.86L319.81 223.8C320.081 223.787 320.348 223.876 320.557 224.05C320.766 224.224 320.903 224.469 320.94 224.738C320.978 225.007 320.914 225.281 320.76 225.505C320.606 225.729 320.374 225.888 320.11 225.95L310.63 227.59L310.38 228.69L320.8 229.69C321.049 229.73 321.274 229.862 321.43 230.06C321.585 230.259 321.66 230.509 321.64 230.76C321.608 230.985 321.495 231.191 321.322 231.338C321.148 231.486 320.927 231.565 320.7 231.56L310.29 231.41C312.02 232.41 312.7 232.75 314.46 233.7C317.46 235.32 318.29 236.27 316.07 236.17C315.306 236.021 314.564 235.779 313.86 235.45L309.25 234C309.25 234 307.25 234.17 305.51 234.42C303.77 234.67 301.51 235.19 300.57 235.19C299.428 235.053 298.301 234.819 297.2 234.49L295.7 228.19Z" fill="white" stroke="#263238" stroke-linecap="round" stroke-linejoin="round"/>
<path d="M301.93 223.91V227.4C301.93 228.4 301.08 229.27 299.47 229.78" stroke="#263238" stroke-linecap="round" stroke-linejoin="round"/>
<path d="M163.15 144.5C163.15 144.5 166.86 140.93 167.45 139.44C168.04 137.95 167.57 135.63 168.45 134.23C169.33 132.83 170.62 130.97 169.37 130.82C168.854 130.704 168.314 130.742 167.82 130.931C167.325 131.119 166.898 131.449 166.59 131.88C165.925 132.751 165.427 133.738 165.12 134.79C164.934 135.44 164.59 136.034 164.12 136.52C163.94 136.63 163.791 136.785 163.69 136.97L161.29 121.17C161.102 121.046 160.888 120.966 160.664 120.937C160.441 120.907 160.214 120.929 160 121C159.17 121.27 159.28 122.49 159.39 123C159.5 123.51 160.16 130.32 160.16 130.32H158.86L155 121.42C154.884 121.167 154.675 120.969 154.417 120.866C154.158 120.764 153.87 120.765 153.613 120.869C153.355 120.973 153.148 121.173 153.033 121.427C152.919 121.68 152.907 121.968 153 122.23L156.3 131.23L155.47 132.01L149.4 123.47C149.253 123.298 149.048 123.185 148.824 123.151C148.6 123.118 148.372 123.167 148.181 123.288C147.99 123.41 147.849 123.597 147.784 123.814C147.72 124.031 147.736 124.264 147.83 124.47L153.15 133.47C151.42 132.47 150.79 132.05 149.09 131C146.2 129.22 144.95 129 146.15 130.83C146.657 131.418 147.235 131.942 147.87 132.39L151.45 135.62C151.45 135.62 152.32 137.48 152.95 139.08C153.58 140.68 154.27 142.93 154.74 143.74C155.429 144.663 156.195 145.526 157.03 146.32L163.15 144.5Z" fill="white" stroke="#263238" stroke-linecap="round" stroke-linejoin="round"/>
<path d="M163.76 137L160.76 138.73C159.87 139.24 159.56 140.41 159.92 142.06" stroke="#263238" stroke-linecap="round" stroke-linejoin="round"/>
<path opacity="0.5" d="M444.99 176.39H268.5V288.15H444.99V176.39Z" fill="white" stroke="#263238" stroke-miterlimit="10"/>
<path d="M323.78 163.4L320.37 153.61H265.07V296.28H448.42V163.4H323.78ZM445 288.14H268.5V176.39H445V288.14Z" fill="#7A86DD" stroke="#263238" stroke-miterlimit="10"/>
<path d="M411.44 167.1H323.76V172.47H411.44V167.1Z" fill="white" stroke="#263238" stroke-miterlimit="10"/>
<path d="M272.74 166.24L270.21 168.68L272.84 171.49" stroke="#263238" stroke-linecap="round" stroke-linejoin="round"/>
<path d="M270.21 168.68H275.83" stroke="#263238" stroke-linecap="round" stroke-linejoin="round"/>
<path d="M287.08 166.24L289.61 168.68L286.99 171.49" stroke="#263238" stroke-linecap="round" stroke-linejoin="round"/>
<path d="M289.61 168.68H283.99" stroke="#263238" stroke-linecap="round" stroke-linejoin="round"/>
<path d="M301.69 168.35C301.525 167.787 301.187 167.291 300.724 166.931C300.261 166.572 299.696 166.369 299.11 166.35C298.439 166.35 297.795 166.617 297.321 167.091C296.846 167.565 296.58 168.209 296.58 168.88C296.58 169.551 296.846 170.195 297.321 170.669C297.795 171.143 298.439 171.41 299.11 171.41C299.693 171.414 300.26 171.212 300.71 170.84" stroke="#263238" stroke-linecap="round" stroke-linejoin="round"/>
<path d="M299.98 168.63H301.95V166.29" stroke="#263238" stroke-linecap="round" stroke-linejoin="round"/>
<path d="M315.09 167.8L312.76 165.91L310.53 167.8V171.91H315.09V167.8Z" stroke="#263238" stroke-linecap="round" stroke-linejoin="round"/>
<path d="M313.65 168.91H311.87V171.76H313.65V168.91Z" fill="#263238"/>
<path d="M310.53 167.8L309.2 169.03" stroke="#263238" stroke-linecap="round" stroke-linejoin="round"/>
<path d="M315.09 167.8L316.34 168.92" stroke="#263238" stroke-linecap="round" stroke-linejoin="round"/>
<path d="M314.25 158.68L317.8 162.34" stroke="#263238" stroke-linecap="round" stroke-linejoin="round"/>
<path d="M317.86 158.73L314.19 162.28" stroke="#263238" stroke-linecap="round" stroke-linejoin="round"/>
<path d="M435.69 168.08H442.72" stroke="#263238" stroke-linecap="round" stroke-linejoin="round"/>
<path d="M435.69 169.67H442.72" stroke="#263238" stroke-linecap="round" stroke-linejoin="round"/>
<path d="M435.69 171.25H442.72" stroke="#263238" stroke-linecap="round" stroke-linejoin="round"/>
<path d="M435.69 172.84H442.72" stroke="#263238" stroke-linecap="round" stroke-linejoin="round"/>
<path opacity="0.5" d="M194.24 92.37H76.6099V166.85H194.24V92.37Z" fill="white" stroke="#263238" stroke-miterlimit="10"/>
<path d="M113.46 83.72L111.18 77.19H74.3198V172.28H196.52V83.72H113.46ZM194.24 166.86H76.6098V92.37H194.24V166.86Z" fill="#7A86DD" stroke="#263238" stroke-miterlimit="10"/>
<path d="M171.88 86.18H113.44V89.76H171.88V86.18Z" fill="white" stroke="#263238" stroke-miterlimit="10"/>
<path d="M79.44 85.61L77.75 87.23L79.5 89.11" stroke="#263238" stroke-linecap="round" stroke-linejoin="round"/>
<path d="M77.75 87.23H81.5" stroke="#263238" stroke-linecap="round" stroke-linejoin="round"/>
<path d="M88.9897 85.61L90.6797 87.23L88.9297 89.11" stroke="#263238" stroke-linecap="round" stroke-linejoin="round"/>
<path d="M90.6797 87.23H86.9297" stroke="#263238" stroke-linecap="round" stroke-linejoin="round"/>
<path d="M98.7297 87C98.621 86.6227 98.3944 86.2902 98.0832 86.0509C97.7719 85.8116 97.3922 85.6781 96.9997 85.67C96.7291 85.6704 96.4626 85.7357 96.2225 85.8605C95.9825 85.9853 95.7759 86.1659 95.6201 86.3871C95.4644 86.6084 95.364 86.8638 95.3275 87.1319C95.291 87.4 95.3193 87.6729 95.4102 87.9277C95.5011 88.1826 95.6519 88.4119 95.8498 88.5963C96.0478 88.7808 96.2871 88.915 96.5477 88.9878C96.8083 89.0605 97.0826 89.0696 97.3474 89.0143C97.6123 88.959 97.86 88.8409 98.0697 88.67" stroke="#263238" stroke-linecap="round" stroke-linejoin="round"/>
<path d="M97.5898 87.2H98.9099V85.65" stroke="#263238" stroke-linecap="round" stroke-linejoin="round"/>
<path d="M107.66 86.65L106.11 85.39L104.63 86.65V89.39H107.66V86.65Z" stroke="#263238" stroke-linecap="round" stroke-linejoin="round"/>
<path d="M106.69 87.39H105.51V89.29H106.69V87.39Z" fill="#263238"/>
<path d="M104.63 86.65L103.74 87.47" stroke="#263238" stroke-linecap="round" stroke-linejoin="round"/>
<path d="M107.66 86.65L108.5 87.4" stroke="#263238" stroke-linecap="round" stroke-linejoin="round"/>
<path d="M107.1 80.57L109.47 83.01" stroke="#263238" stroke-linecap="round" stroke-linejoin="round"/>
<path d="M109.51 80.61L107.06 82.97" stroke="#263238" stroke-linecap="round" stroke-linejoin="round"/>
<path d="M188.04 86.84H192.73" stroke="#263238" stroke-linecap="round" stroke-linejoin="round"/>
<path d="M188.04 87.89H192.73" stroke="#263238" stroke-linecap="round" stroke-linejoin="round"/>
<path d="M188.04 88.95H192.73" stroke="#263238" stroke-linecap="round" stroke-linejoin="round"/>
<path d="M188.04 90.01H192.73" stroke="#263238" stroke-linecap="round" stroke-linejoin="round"/>
<path d="M187.86 239.69H74.3198V308.5H187.86V239.69Z" fill="#263238" stroke="#263238" stroke-miterlimit="10"/>
<path d="M187.86 298.33H74.3198V308.5H187.86V298.33Z" fill="#7A86DD" stroke="#263238" stroke-miterlimit="10"/>
<path d="M129.55 289.74C139.469 289.74 147.51 281.699 147.51 271.78C147.51 261.861 139.469 253.82 129.55 253.82C119.631 253.82 111.59 261.861 111.59 271.78C111.59 281.699 119.631 289.74 129.55 289.74Z" fill="white" stroke="#263238" stroke-miterlimit="10"/>
<path d="M142.59 271.78L122.85 260.39V283.18L142.59 271.78Z" fill="#263238" stroke="#263238" stroke-miterlimit="10"/>
<path d="M182.23 301.55H79.9697V303.39H182.23V301.55Z" fill="#263238"/>
<path d="M83.5197 302.44C83.5197 302.116 83.4236 301.799 83.2434 301.529C83.0631 301.259 82.807 301.049 82.5073 300.925C82.2077 300.801 81.8779 300.768 81.5598 300.832C81.2417 300.895 80.9494 301.051 80.7201 301.28C80.4907 301.51 80.3345 301.802 80.2713 302.12C80.208 302.438 80.2405 302.768 80.3646 303.068C80.4887 303.367 80.6989 303.623 80.9686 303.804C81.2383 303.984 81.5554 304.08 81.8797 304.08C82.3139 304.077 82.7295 303.904 83.0365 303.597C83.3435 303.29 83.5171 302.874 83.5197 302.44Z" fill="#7A86DD" stroke="#263238" stroke-miterlimit="10"/>
</svg>
